<svg id="Layer_1" data-name="Layer 1" xmlns="http://www.w3.org/2000/svg" viewBox="0 0 1035.45 866.55"><defs><style>.cls-1{fill:#918bd3;}.cls-2{fill:#e59f62;}.cls-3{fill:#dfc45a;}.cls-4{fill:#92a0e1;}.cls-5{fill:#e37e7a;}.cls-6{fill:#8c93d6;}.cls-7{fill:#9a88d4;}.cls-8{fill:#93b0ec;}.cls-9{fill:#c38cdf;}.cls-10{fill:#d885b1;}.cls-11{fill:#cf8cd7;}.cls-12{fill:#e59c64;}.cls-13{fill:#b28bdd;}.cls-14{fill:#e5ddcc;}.cls-15{fill:#ffef92;}</style></defs><path class="cls-1" d="M456.51,371.09l1.05-.86,1.25-.93.12-.07a2.25,2.25,0,0,0,2-1.05,6.25,6.25,0,0,1,4.24-1.24c1.21,0,2.49.29,3.38-.89l1.11-.15c1.15,0,2.36.22,3.22-.85l1.15-.25c1.52,0,3.18.46,4.38-1a2.75,2.75,0,0,1,1-.12,2.25,2.25,0,0,0,2.24-.71l2.2-.36c1.52,0,3.17.47,4.37-1a2.9,2.9,0,0,1,1-.13l1.15,0c1.31.27,2.2-.71,3.29-1.09,1.86-.15,3.92.7,5.43-1.12h0c1.2.07,2.44.26,3.32-.88l2-.27c1.25.12,2.51.3,3.42-.9a2.76,2.76,0,0,1,1-.13c1.21.07,2.44.24,3.33-.89,2.12-.65,4.55.28,6.49-1.28,1.54,0,3.22.51,4.42-1,1.79-.42,3.81.21,5.41-1.16,1.53-.05,3.2.49,4.4-1a1.79,1.79,0,0,1,1-.12l1.2,0c1.28.23,2.16-.73,3.24-1.1,1.53-.06,3.19.49,4.4-1a2,2,0,0,1,1-.12l1.19.05c1.28.22,2.17-.75,3.26-1.11,1.52-.06,3.19.49,4.38-1a2,2,0,0,1,1-.13c3.15.23,6.18-.06,8.83-2a2.11,2.11,0,0,1,1-.12,2.34,2.34,0,0,0,2.21-.69l2.22-.38c1.52-.06,3.18.49,4.38-1a2.15,2.15,0,0,1,1-.12,2.32,2.32,0,0,0,2.2-.69,6.79,6.79,0,0,0,4.26-3.86,420.18,420.18,0,0,1,25.94-45.17c5.3-8,10.45-16.1,16.89-23.26,4.52.22,9-.94,13.41-1,8.82-.11,16.31-4.78,24.65-6.51,4.05-.84,4-1.8,6.65,1.34a4.87,4.87,0,0,0,4.26,1.78c-.53,3.41-3.66,4.82-5.56,7.17A524.88,524.88,0,0,0,630.81,321c-2,3.09-3.73,6.3-6,10.24,12.06-2.75,23.1-5.35,34.18-7.79,22.74-5,45.51-9.88,68.25-14.9,18.15-4,36.26-8.25,54.42-12.26,27-5.95,54-11.78,80.95-17.68q27.24-6,54.47-12c14.27-3.18,28.51-6.5,42.79-9.67,19.73-4.37,39.49-8.62,59.23-13,14.81-3.27,29.6-6.65,44.41-9.92q27.48-6.07,55-12c.57,3.09,2.55,4,5.48,3.77,4-.36,7.83-3.45,12.07-.66.67.44,1.76-.23,2.46-.85,1.65-1.47,3.24-1.34,4.83.08,1,.92,2.57.45,3.57,1a13.16,13.16,0,0,0,9.51,1.65c1.65-.34,3.31,0,4.79-1.31,2.62-2.34,6.1-2.39,9.17-2.13,5.54.45,11,2,16.62,1.71,1.07-.05,2.65-.19,2.93.87,1.38,5.15,4.95,3.17,8.24,3,4-.24,7.53-2.15,11.31-3.14,2-.51,2.89-.2,3.86,1.62,2,3.75,2.1,3.55,6.19,2,3.31-1.28,6.94-.62,10.35-.59a4.33,4.33,0,0,1,4.2,4.77c-4.76,1-9.52,2.05-14.27,3.13-14.82,3.35-29.61,6.8-44.45,10.08-23.12,5.11-46.27,10.07-69.4,15.17-16.38,3.62-32.77,7.2-49.13,10.92C1017.44,282,978,290.51,938.62,299.18Q888,310.31,837.37,321.38q-33.92,7.44-67.83,14.92c-.19-1.81-1.07-3.26-3-2.89-2.25.43-4.53,1.26-4.62,4.24l-4.36,1.06c-1.85-4.24-1.86-4.3-5.67-3.42a36.4,36.4,0,0,1-11.28,1.17,19.23,19.23,0,0,0-11,2.53c-2.46,1.34-5.08,1.53-7.77,2-3.55.6-7.22-.9-10.55.71a16.31,16.31,0,0,1-7.39,1.34c-4,0-8.22-.69-11.9.42-5.28,1.6-10.91,1.3-16,3.59a9.16,9.16,0,0,1-6.44.12c-4.05-1.4-7.46-.95-10.46,2.14-1,1-2.11,1.4-3.39.56-3.63-2.4-7.23-.81-10.21.87a12.83,12.83,0,0,1-10.82,1.36c-2.83-.88-5.93-.83-7.91,1.95-1.69,2.38-3.11,1.9-4.78.13a2.76,2.76,0,0,0-2.4-1c-6.45.65-12.91,1.23-19.35,1.89a3.07,3.07,0,0,0-2,.76c-2.67,3.53-6.51,2.08-8.86.82-4.33-2.34-8-.39-11.86.26-.95.16-1.73,1.46-2.88.52-3.29-2.68-3.5-.43-3.61,2.18,0,1,.34,2.31-1.37,2.43-1.15-.72-1.42-2.05-2.11-3.09s-1.38-1.91-2.61-1.24a24.25,24.25,0,0,0-3,2.28.72.72,0,0,1-.49.2c-5-1.25-9.81-.29-14.67.65-5.84-3.39-11.16.93-16.69,1.48-2.68.27-5.31,1.84-8.22.78a4.36,4.36,0,0,0-3.16.07,10.41,10.41,0,0,1-6.92-.12c-2.06-.66-3.9-1.07-3.21,2.61.57,3.07-1.31,4-4.36,2.49-1.16-.58-2.33-1.57-3.51-1-4,1.84-8.37,0-12.29,1.78-2.63,1.21-4.16-1.93-6.54-1.76s-3.13,3.92-6.12,2.39c-1.09-.55-2,0-2.91.77-3.2,2.46-7,3.65-10.89,4.5C457.47,375.8,457.48,375.86,456.51,371.09Z" transform="translate(-449.58 -97.82)"/><path class="cls-2" d="M785.93,924.07c-9.16-3.51-17.74-8.21-26.32-12.9A406.18,406.18,0,0,1,715,883.06a7.59,7.59,0,0,0-6.65-1.18q-24.93,5.54-49.85,11.07c-24.57,5.42-49.13,10.89-73.73,16.21-10.59,2.29-19.29-2.9-22.16-13.24A102.58,102.58,0,0,1,559,878.38a32,32,0,0,1,5.9.6c5.31,1.13,10-2.2,15.11-2.71,1-.09,1.76-1.71,2.59-2.66.64-.72.24-2.29,1.78-2.26,1.72.9-.16,3.71,2.57,4.39.57-4.83,3.44-9.38-.19-13.92,1.62-1.37,3.33-.7,4.9-.88,1,1.59,1,3.44,1.39,5.2.76,3.41,1.5,3.84,4.93,3.08,24.51-5.46,49-11,73.53-16.35,8.29-1.79,16.47-4.13,24.93-5.06,0,2.67.44,4.87,4.06,3.6a6.58,6.58,0,0,1,4.79.29c1.21.51,2.7.94,3.59-.1,2.41-2.8,6.19-2.83,9-4.86a13.34,13.34,0,0,1,11.46-1.84c5,1.34,9.57-2.19,14.49-.73.65.19,1.78-.54,2.4-1.14,1.8-1.75,3.31-1.51,5.17,0,2.25,1.84,4.62,2,6.61-.62,1.48-1.91,3.49-2.42,5.81-2.24a5.28,5.28,0,0,0,4.09-1.1,3.53,3.53,0,0,1,3-1c6.07,1.21,11.53-1.32,17.13-2.83,5.24-1.4,10.64-2.68,15.94-2.34,3,.2,5,0,7.22-2,1.82-1.57,3.86-3.33,6.8-1.82,1.15.59,2.35-.43,3.5-1a18.59,18.59,0,0,1,7.77-2,17.42,17.42,0,0,0,7.27-1.59c2.47-1.22,5.48-1.5,8.19-2.55,2.35-.91,4.51.91,6.76,1.48,1.64.41,3.51,1,4-1.23,1-4.25,4.17-4.15,7.23-3.69s5.88,1.37,8.17-1.85c.48-.66,2.39-.42,3.65-.4,4.55.06,8.81-3,13.52-1.25a.86.86,0,0,0,.52-.12c2.61-1.2,5.16-3,7.93-.2.47.47,1.43.05,1.93-.52,1.76-2,3.69-2.69,6.26-1.44,1.06.52,2.06-.35,2.92-1a3.74,3.74,0,0,1,3.06-.61A57.3,57.3,0,0,0,925,810.8c1.79-.22,2.33-1,2.71-2.69,1-4.28,1.16-4.33,4.61-1.91,1.48,1,3.21,2,4.22.27,2.7-4.75,6-2.62,9.12-1.05,1.57.78,3.19,1.45,4.64.78,3-1.38,5.67-.45,8.39.54,1.4.5,2.76,1.14,4-.18,1.51-1.57.6-2.95-.38-4.35a4.18,4.18,0,0,1-.41-1.35c.84-1.27,2-1,3.06-1,1.69-.09,1.68-1.7,2.52-2.54.21-.2.84-.35,1-.22,1.63,1.73,4.88,1.12,5.79,3.65a3.21,3.21,0,0,0,3.63,2.45,4.46,4.46,0,0,1,2.49.93c4.39,2.72,6.62,2.17,9.39-2.47a6.7,6.7,0,0,1,5-3.55,35.32,35.32,0,0,0,1.07,3.88c1.35,3.22,3.23,4,5.88,2.73,3.39-1.68,4-3.13,2.3-6.39-.59-1.14-1.52-2.1-.38-3.39,1.8-.59,2.95,2.57,4.91.87,2.16-1.88,4.24-1.68,6.35.09.56.47,1.58.91,2,.41,2.44-3,7.21-.6,9.48-4.36.91-1.5,5.92-1.14,7.12.09,2.37,2.43-.48,3.27-1.5,4.72a1.69,1.69,0,0,0,.89,2.66c1.38.62,2.9.86,3.61-1,.32-.82.11-1.83.37-2.68.91-2.85,2.36-3.37,4.77-1.44,1.57,1.26,2.57.82,3.69-.38a5.82,5.82,0,0,0,1.24-2.94c.68-3,2-3.78,4.86-2.72a26.48,26.48,0,0,1,3.75,2.15c1.71,1,3.32,2.31,5.52,1.52.88-1.14-.37-2.48.39-3.63.58-.87.76-2.22,2.12-2.15.93.05,1.56.85,2.12,1.57.84,1.1.45,2-.43,2.85-.6.59-1.66.89-1.31,2.12,1.38,1,2.69.64,4-.28,1.75-1.27,3.71-2.26,5.17-3.95A3.36,3.36,0,0,1,1076,787c5.34,1.06,10.57-.72,15.94-.57s11,.65,16.52.07c3-.31,5.48-.35,7.73-2.54s4.52-2.26,6.58-.22a4.87,4.87,0,0,0,4.72,1.52c2.24-.29,5.14-.6,6.28,2.54-1.58.41-3.14.88-4.73,1.23q-36.82,8.16-73.65,16.3c-17.66,3.92-35.3,8-53,11.85q-49.54,11-99.1,21.83l-74.72,16.46c-15.2,3.34-30.4,6.63-45.59,10-6.78,1.49-13.54,3.06-21.62,4.9A423.13,423.13,0,0,0,848.05,910c-.17.7-.25,1.66-1,1.77-5.67.77-11.45,2.36-17,1.81-3.86-.38-5.08,1.32-7,4.16-1.81-3.43-4.08-3.53-6.78-1.77-1.43.92-3.18.47-4.79.55s-3.31-.33-4.76.68c-2.62,1.82-5.73,1.93-8.68,2.66C793.88,920.91,789.4,921.09,785.93,924.07Z" transform="translate(-449.58 -97.82)"/><path class="cls-3" d="M785.93,924.07c3.47-3,8-3.16,12.09-4.19,3-.73,6.06-.84,8.68-2.66,1.45-1,3.15-.6,4.76-.68s3.36.37,4.79-.55c2.7-1.76,5-1.66,6.78,1.77,1.9-2.84,3.12-4.54,7-4.16,5.56.55,11.34-1,17-1.81.78-.11.86-1.07,1-1.77a8.92,8.92,0,0,1,2.15.2c9.59,3.38,19.5,5.56,29.35,7.89,9.13,2.16,18.26,5,27.53,5.72s18.68,2.14,28,2.93c9.75.82,19.56-.14,29.25,1.63,4.1.75,8.3-.7,12.42-.74a345.21,345.21,0,0,0,43.8-3.25q17.49-2.42,34.64-6.25a371.49,371.49,0,0,0,58.59-18,335.41,335.41,0,0,0,35.54-16.34c7.46-4.07,15-8,22.52-11.94.43,1.11-.73,4.24,2.38,1.93,1.07-.79,2.1-.94,2.85,0,1,1.34,2.78.91,3.82,1.83,1.54,1.35,2.5,1.4,4-.18s2.84-.84,3.17,1.26c.16,1.06-1.25,2.25.23,3.47,3.27-2.86,6.44-5.53,8.86-8.92,1.7-2.38,3.89-3.32,6.59-2.37,1.89.66,2.9.13,4.18-1.27s2.82-.61,2.74,1.21c-.07,1.53-1.29,3.1.81,4.26a6,6,0,0,0,5.23.65c1.87-.78,5.17-1,2.79-4.67-.72-1.1.58-1.41,1.47-1.6,2.39-.51,1.9-1.68.67-3a3.46,3.46,0,0,0-3.94-.91c-2.29.68-4.22-.35-6.93-1.87a14.15,14.15,0,0,1,6.74-.62c2.3.25,4.68,1.15,6.86.77,2.73-.47,4.29-.4,5.3,2.61.79,2.35,1.23,2.23,4.82,1.87-3.5-3-3.55-3.4-.37-6.72a4.61,4.61,0,0,0,1.21-2.37c.93-5.11,5.58.95,7.14-2.38.09-.19,1-.14,1.47,0,.78.29.86,1.1.9,1.82.09,2,.13,4,.19,6-.17,1.43-1.19,2.05-2.39,2.5-2.25-1.5-1.88.34-2,1.56-2.26,2.91-5.34,4.86-8.21,7a454,454,0,0,1-54.42,35.87A429.88,429.88,0,0,1,1061.63,954a406.31,406.31,0,0,1-70,9.64c-9.07.39-18.13.82-27.21.74a434.07,434.07,0,0,1-88-9.7,426.75,426.75,0,0,1-88.18-29.23A21.36,21.36,0,0,1,785.93,924.07Zm455.13-63.82c.29-.83-.17-1.1-.66-1.25a1.07,1.07,0,0,0-1.35.4.82.82,0,0,0,.38,1.23A1.22,1.22,0,0,0,1241.06,860.25Zm-12.69,9.5c.07-1.14-.16-1.6-.67-1.76s-1,.28-1,.8c-.13.7,0,1.43.91,1.41A1.07,1.07,0,0,0,1228.37,869.75Z" transform="translate(-449.58 -97.82)"/><path class="cls-4" d="M1081.53,114l2.13.32a2.23,2.23,0,0,0,2.13.8l1.11.17a2.16,2.16,0,0,0,2.27.87,25.44,25.44,0,0,1,3.73.6A437.71,437.71,0,0,1,1233,189.08a6.22,6.22,0,0,1,1,1.27,4.55,4.55,0,0,0-1.62.09c-2.55,1.17-5,3.16-7.76.31-.16-.17-.75-.13-1,0-2.2,1.17-3.79.21-5.28-1.37-.49-.52-1.17-1.16-1.88-.86-2.54,1.08-4.13.55-4.82-2.3a1.29,1.29,0,0,0-1.79-.75,1.58,1.58,0,0,0-.76,1.84c.26,1.6.71,3.16.93,4.76a1.89,1.89,0,0,1-1,2.26,1.69,1.69,0,0,1-2.21-1c-1-1.84-2.1-3.75-4.55-2.7-3.34,1.42-4,.05-4.29-3-.19-2.29-1.72-3.19-3.79-1.49-1.52,1.24-3.46.91-5.14,1.59-2.24.92-3.94.49-4-2.46-.06-2.61-1.93-3.43-4-3.39a28.15,28.15,0,0,0-5.29,1,1.91,1.91,0,0,0-1.41,1.47,5.57,5.57,0,0,0,2.9,7.06c2.06,1,2.47,2.43,2.43,4.36-3.37-2.11-6.66-4.38-10.14-6.3-9.48-5.24-18.91-10.59-28.6-15.43a350.34,350.34,0,0,0-39.55-16.41c-9-3.21-18.19-6.06-27.4-8.69-12.13-3.46-24.43-6.28-36.85-8.56a270.2,270.2,0,0,0-31.56-4.36c-8.1-.51-16.18-2-24.36-1.34a13,13,0,0,1-3.77-.33c-6.65-1.46-13.43-1.17-20-.38a83.57,83.57,0,0,1-18.36.28c-1.11-.11-2.13-.35-3.12.24-2.12,1.27-4.48,1.13-6.82,1.38-3.77.41-7.54.79-11.28,1.31-8.2,1.12-16.33,2.76-24.51,4a264.32,264.32,0,0,0-39.44,9.47c-17.7,5.66-35.35,11.68-52.12,19.95-10.39,5.12-20.91,10-30.95,15.76a403.5,403.5,0,0,0-38.09,24.95,8.25,8.25,0,0,1-4.45,1.87c-3.13-1.61-6.7-1.67-10-1.92s-7,0-9.88,1.84c-4,2.62-8,2.76-12.4,1.51-1.73-.49-3.52-.78-4.93,1-2.22,2.81-5.14,2.56-7.75,1-2.4-1.46-4.05-.72-6.44.13-3.62,1.28-6.29,5.17-10.76,4.11,4.63-6.16,10.82-10.7,16.51-15.72a373.14,373.14,0,0,1,43.15-33.11c12.24-8,24.41-16.14,37.74-22.29,2.78-1.29,5-3.69,8.14-4.23,1.2.42,2.42.75,3.57,1.27,1.51.69,3.33,1.76,4.6.61,3.34-3,7.85-2.48,11.42-4.26,5.1-2.53,10.53-1.92,15.77-2.89,2-.37,4-.1,5.23-2.14.6-.95,1.22-.67,2.09.16,2.68,2.58,5.15,2.34,6.38-1,1-2.78,2.41-2.69,4.53-2a35.72,35.72,0,0,1,5.65,1.9c3.51,1.87,6.73-.15,10.07-.42,2.29-.18,1.38-2.64,2.28-3.87s2-1.3,3.25-.37a5.1,5.1,0,0,0,6.52.06c1-.68,2-.43,3-.57,4.3-.57,9,.57,12.73-2.88,1.76-1.62,4.08-1.32,6,.11a4.84,4.84,0,0,0,4.08.94c4.75-1,9.44-1.94,13.51-4.89,2.29-1.66,4.71-1.55,7.65-.57,3.09,1,6.73,2.44,10.12,0a6.29,6.29,0,0,1,2.51-.85,35.21,35.21,0,0,1,10.62-.33,46.87,46.87,0,0,0,17.64-1.39c7.46-2,15.44-3.56,23.43-1.7a4.87,4.87,0,0,0,2.68-.11,6.78,6.78,0,0,1,5.25-.07,6.13,6.13,0,0,0,4.77-.33,5.93,5.93,0,0,1,4.27-.36c5.37,2,10.35.48,15.28-1.4,4.73-1.81,9.35-2.42,14.09,0,2.32,1.2,4.6,1.06,7.23,0,3-1.22,6.43-2.6,9.8-.59,1.35.8,2.36.25,3.44-.59,2.49-1.93,5.14-2.59,8-.78.6.36,1.52.84,2,.63,5.62-2.51,11.77,1.84,17.34-1.39.45-.26,1.36.4,2.06.45,3.57.23,7.21,1.08,10.45-1.43,1-.81,2.46-.46,3.72-.5s2.57.15,3.45-1.09l2.31.39Z" transform="translate(-449.58 -97.82)"/><path class="cls-5" d="M1460.63,584.08c2.86,9.38,4.47,19,6.63,28.59,5.77,25.48,11.34,51,17,76.51,1.67,7.54,1,14.43-5.15,20a19.35,19.35,0,0,1-9.18,4.48q-51.8,11.49-103.59,22.92-8.24,1.83-16.47,3.61a7.65,7.65,0,0,0-5.37,4.06c-5.35,9.27-10.53,18.66-17,27.24-3.06.42-2.76-2.12-3.39-3.84-.84-2.31-4.35-.68-5-3.48-.68-3.14-2-3.39-3.49-.42a1.48,1.48,0,0,1-2.22.76c-.88-.54-.82-1.54-.44-2.42.85-2,1.18-4.08-.72-5.43-2.71-1.92-4.09-4.87-6-7.34-1.18-1.56-3.09-1.74-4.06-3.34-.36-.6-1.83-.17-1.77.33.48,4-2.53,3.13-4.64,3.55-1,0-.71,1.39-1.63,1.44.13-1.4-3.32-1.77-1-3.85,3.07-2.76,3.08-2.91.1-5.15-.88-.66-1.45-2.27-3.1-1.62-.83,1.22-.21,2.39,0,3.63.34,2.23-1.88,5.47-3.48,5.18-2.71-.49-2.52-2.69-2.37-4.71.06-.71.5-1.38.58-2.09a4.92,4.92,0,0,0-1.9-4.28,2.79,2.79,0,0,0-3.08-.4c-1.06.49-.75,1.46-.43,2.33a5.36,5.36,0,0,1-.1,3.72c-.88,2.52-2.55,2-4.35,1.28-2-.76-1.93-1.87-.66-3.27a3.63,3.63,0,0,0,.9-1.31,4.8,4.8,0,0,0-1.65-5.36c-.92-.72-2-1.27-2.93-.4a4.1,4.1,0,0,0-1.22,4.91c.69,1.66,1,3.36-.25,5a15.21,15.21,0,0,0-3.07-1.7c-4-1.07-7-2.42-7.74-7.48-.54-3.85-4.43-4.12-7.1-1-.58.68-1,1.53-2.28,1.27-2.36-3-.59-6.9-1.89-10.16,18-4.72,36.37-7.91,54.49-12.17,10.75-2.53,21.59-4.66,32.37-7.06,12-2.67,24-5.5,36-8.17,23.34-5.17,46.69-10.26,70-15.44,4.78-1.06,5.25-1.93,4.17-6.78-5.88-26.51-11.86-53-17.63-79.54-1.15-5.29-3-10.49-2.93-16h.54a63,63,0,0,0,7.53-.07c2.38-.29,5,2.15,6.7.61,3.3-2.94,3.91,1.32,5.88,1.58a4.23,4.23,0,0,0,2.13-.11c2.26-1,4.65-.06,6.72-.39C1456.17,581.86,1457.87,585,1460.63,584.08Z" transform="translate(-449.58 -97.82)"/><path class="cls-6" d="M1179.54,195.8c0-1.93-.37-3.38-2.43-4.36a5.57,5.57,0,0,1-2.9-7.06,1.91,1.91,0,0,1,1.41-1.47,28.15,28.15,0,0,1,5.29-1c2.12,0,4,.78,4,3.39.07,2.95,1.77,3.38,4,2.46,1.68-.68,3.62-.35,5.14-1.59,2.07-1.7,3.6-.8,3.79,1.49.24,3.07.95,4.44,4.29,3,2.45-1,3.57.86,4.55,2.7a1.69,1.69,0,0,0,2.21,1,1.89,1.89,0,0,0,1-2.26c-.22-1.6-.67-3.16-.93-4.76a1.58,1.58,0,0,1,.76-1.84,1.29,1.29,0,0,1,1.79.75c.69,2.85,2.28,3.38,4.82,2.3.71-.3,1.39.34,1.88.86,1.49,1.58,3.08,2.54,5.28,1.37.28-.15.87-.19,1,0,2.73,2.85,5.21.86,7.76-.31a4.55,4.55,0,0,1,1.62-.09l6.68,4.71c.7.84,1.37.78,2-.07l2.24-.33c.94,1.88,2.42,3,4.27,1.55,2.15-1.65,3.69-1.81,5.24.64.5.79,1.72,1.19,2.15.1,1.16-2.94,3-2.09,5.23-1.55,2.83.68,3.55-.32,3-3.51-.09-.53-.19-1-.29-1.58h0c1.16,0,2.37.26,3.24-.85l2.1-.29c1.74.21,3.69-.29,4.83,1.73a2,2,0,0,0,2.74,1.09c2.33-1.13,3.63.39,5.24,1.64,3.34,2.58,3.59,2.5,7.2-.28.6-.47,1.23-.86,1.95-.51s.58,1.07.57,1.83c-.08,3.59.17,3.86,3.38,2.3,2.51-1.21,5.19-1.7,7.66-3.57,3.24-2.44,6.28-2.64,8.89,1.06,2.28,3.23,3.48,3.65,7,2.27a7.3,7.3,0,0,1,6.17-.12c3.32,1.45,7,4.45,10.4-.13,3.1.81,5.85-2.56,9.1-.64,4.2,2.47,9,3.28,13.67,5a27,27,0,0,1,2-3.78c1.16-1.6,3.45-1.64,3.85.08.74,3.17,2.17,3.06,4.7,2.24,1.66-.53,3.6-.2,5.41-.26a8.41,8.41,0,0,1,.84,4.16c-1.07.37-1.93,1-1.53,2.25.5,1.54,1.93,1.08,3.07,1.2a170.35,170.35,0,0,1,4.69,18.63c2.32,11.25,5.37,22.35,7.11,33.73-1.86,0-2.85-1.38-4-2.48-5-4.66-6.8-4.27-8.73,2.26-3.86-2.33-8.07-1.85-12.2-1.36-1.88.22-3.74-.22-4.34-1.46-2-4.09-4.55-2.81-7.35-1.38a3,3,0,0,1-1.08.06c-2.28-8.45-3.42-17.18-6.12-25.71-2.11,1-3,2.58-4.1,4-4.23,5.11-7.57,10.95-12.64,15.36-2.83-.33-6,.49-8.39-1.5-2.74-2.25-5.1-5.2-9.08-2-.46.37-1.73-.16-2.57-.43a2,2,0,0,0-2.44.56c-1.69,2.68-2.88,1.72-4.45-.21-.71-.87-2.18-1.15-3.34-1.6-4.34-1.69-8.69-3.34-13-5,3-6.49,8.83-11.08,12.44-18.05L1234,233.73a4.33,4.33,0,0,0-4.2-4.77c-3.41,0-7-.69-10.35.59-4.09,1.59-4.21,1.79-6.19-2-1-1.82-1.91-2.13-3.86-1.62-3.78,1-7.27,2.9-11.31,3.14-3.29.2-6.86,2.18-8.24-3-.28-1.06-1.86-.92-2.93-.87-5.64.26-11.08-1.26-16.62-1.71-3.07-.26-6.55-.21-9.17,2.13-1.48,1.32-3.14,1-4.79,1.31a13.16,13.16,0,0,1-9.51-1.65c-1-.54-2.53-.07-3.57-1-1.59-1.42-3.18-1.55-4.83-.08-.7.62-1.79,1.29-2.46.85-4.24-2.79-8.07.3-12.07.66-2.93.27-4.91-.68-5.48-3.77,24.9-5.3,49.75-10.81,74.64-17.15a59.81,59.81,0,0,1-9.21-6.87c-.08-2.24-1.68-2.21-3.27-2.19Zm53-.38a2.16,2.16,0,0,0-2.3-1.61,1.3,1.3,0,0,0-1.36,1.35c0,1.45,1.08,1.68,2.21,1.63A1.33,1.33,0,0,0,1232.49,195.42Zm135.68,10.28c-.86,0-1.84.21-1.72,1.35a1.72,1.72,0,0,0,3.36.19C1370.05,206,1369.2,205.78,1368.17,205.7Zm-68.28-2c.3.14.67.44.89.35s.28-.56.41-.86c-.3-.13-.67-.43-.88-.35S1300,203.43,1299.89,203.73Z" transform="translate(-449.58 -97.82)"/><path class="cls-7" d="M456.51,371.09c1,4.77,1,4.71,5.46,3.74,3.91-.85,7.69-2,10.89-4.5.95-.73,1.82-1.32,2.91-.77,3,1.53,3.85-2.22,6.12-2.39s3.91,3,6.54,1.76c3.92-1.79,8.34.06,12.29-1.78,1.18-.56,2.35.43,3.51,1,3,1.52,4.93.58,4.36-2.49-.69-3.68,1.15-3.27,3.21-2.61a10.41,10.41,0,0,0,6.92.12,4.36,4.36,0,0,1,3.16-.07c2.91,1.06,5.54-.51,8.22-.78,5.53-.55,10.85-4.87,16.69-1.48,4.86-.94,9.71-1.9,14.67-.65a.72.72,0,0,0,.49-.2,24.25,24.25,0,0,1,3-2.28c1.23-.67,2,.3,2.61,1.24s1,2.37,2.11,3.09c1.71-.12,1.33-1.46,1.37-2.43.11-2.61.32-4.86,3.61-2.18,1.15.94,1.93-.36,2.88-.52,3.89-.65,7.53-2.6,11.86-.26,2.35,1.26,6.19,2.71,8.86-.82a3.07,3.07,0,0,1,2-.76c6.44-.66,12.9-1.24,19.35-1.89a2.76,2.76,0,0,1,2.4,1c1.67,1.77,3.09,2.25,4.78-.13,2-2.78,5.08-2.83,7.91-1.95a12.83,12.83,0,0,0,10.82-1.36c3-1.68,6.58-3.27,10.21-.87,1.28.84,2.39.47,3.39-.56,3-3.09,6.41-3.54,10.46-2.14A9.16,9.16,0,0,0,676,347c5.11-2.29,10.74-2,16-3.59,3.68-1.11,7.91-.42,11.9-.42a16.31,16.31,0,0,0,7.39-1.34c3.33-1.61,7-.11,10.55-.71,2.69-.45,5.31-.64,7.77-2a19.23,19.23,0,0,1,11-2.53,36.4,36.4,0,0,0,11.28-1.17c3.81-.88,3.82-.82,5.67,3.41-.29.22-.54.57-.86.64q-35,7.8-70,15.56-44,9.72-88,19.39c-20.68,4.54-41.38,9-62,13.59-2.79.62-5.87.72-8.75,2.89,2.92,1.33,5.38,2.44,7.83,3.57l33.08,15.32c-1.28,1.43-7.89,4.24-9.68,4.06-3.61-.37-7.23-1.25-10.65.92a2.32,2.32,0,0,1-2.57-.3c-3.42-2.57-6.6.87-9.93.35-3.21,3.53-7.06,2.31-11,1.92-3.6-.36-8-1.34-9.77,3.69a1.49,1.49,0,0,1-1.69,1.06c-2.58-.82-5.29-.1-7.8-.63-3.74-.78-3.69-1-5.49,2.91-1.59.3-3.91-2.55-4.72,1.1-2.71.46-4.65-2.48-7.19-1.88-3.25.75-6.89.73-9.33,3.63-3.45-1-6.71,0-10,.93a2.75,2.75,0,0,0-.9.59c-2.37,2-5.18,2.44-8.16,2.21-2.85-9.13-4.38-18.56-6.49-27.86-1.26-5.59-3-11.1-3.24-16.9,1-.68,1-1.37,0-2C450,378.14,452.33,374.14,456.51,371.09Z" transform="translate(-449.58 -97.82)"/><path class="cls-5" d="M544.17,811.86c-2.56-11.1-5.21-22.18-7.68-33.31q-9.09-41.06-18-82.17c-2.22-10.24-4.89-20.4-6.48-30.78a19.41,19.41,0,0,1-.1-2.16c1.64-1,3.5.47,5.15-.34-.28-4.44-.28-4.44,4-5.89a6.27,6.27,0,0,1,1.07-.16l0,0a4.88,4.88,0,0,1-.46,1.53c-.73,1-2.22,1.68-1.27,3.16a3,3,0,0,0,3.35,1.12c1.77-.32,3.63-.16,5.4-.47,2.78-.49,3.36-1.88,2.36-4.77-.5-1.42-.76-2.92-1.19-4.61,3.62-.55,7.46.52,9.59-3.56.75-1.43,2.27-.76,3.4.75,2.13,2.85.51,5-1.24,7,1.78,1.48,3.49.75,5,1,3.83,12.74,5.52,25.94,8.64,38.85,6.25,25.86,11.75,51.9,17.36,77.91,2.18,10.08,5.09,20,6.12,30.33-5.7.26-2.17,4.86-3.29,7.7a9.8,9.8,0,0,0-8.31-1.68c-2.26.56-4.88-.66-7.07,1.29-.35.31-1.65-.41-2.49-.71-4.18-1.47-4.18-1.47-6.5,3A11.55,11.55,0,0,0,544.17,811.86Z" transform="translate(-449.58 -97.82)"/><path class="cls-8" d="M1078.1,112.94c-.88,1.24-2.2,1-3.45,1.09s-2.67-.31-3.72.5c-3.24,2.51-6.88,1.66-10.45,1.43-.7,0-1.61-.71-2.06-.45-5.57,3.23-11.72-1.12-17.34,1.39-.49.21-1.41-.27-2-.63-2.9-1.81-5.55-1.15-8,.78-1.08.84-2.09,1.39-3.44.59-3.37-2-6.78-.63-9.8.59-2.63,1-4.91,1.19-7.23,0-4.74-2.45-9.36-1.84-14.09,0-4.93,1.88-9.91,3.45-15.28,1.4a5.93,5.93,0,0,0-4.27.36,6.13,6.13,0,0,1-4.77.33,6.78,6.78,0,0,0-5.25.07,4.87,4.87,0,0,1-2.68.11c-8-1.86-16-.32-23.43,1.7a46.87,46.87,0,0,1-17.64,1.39,35.21,35.21,0,0,0-10.62.33,6.29,6.29,0,0,0-2.51.85c-3.39,2.43-7,1-10.12,0-2.94-1-5.36-1.09-7.65.57-4.07,3-8.76,3.93-13.51,4.89a4.84,4.84,0,0,1-4.08-.94c-1.95-1.43-4.27-1.73-6-.11-3.76,3.45-8.43,2.31-12.73,2.88-1,.14-2-.11-3,.57a5.1,5.1,0,0,1-6.52-.06c-1.25-.93-2.3-.92-3.25.37s0,3.69-2.28,3.87c-3.34.27-6.56,2.29-10.07.42a35.72,35.72,0,0,0-5.65-1.9c-2.12-.71-3.51-.8-4.53,2-1.23,3.37-3.7,3.61-6.38,1-.87-.83-1.49-1.11-2.09-.16-1.28,2-3.26,1.77-5.23,2.14-5.24,1-10.67.36-15.77,2.89-3.57,1.78-8.08,1.24-11.42,4.26-1.27,1.15-3.09.08-4.6-.61-1.15-.52-2.37-.85-3.57-1.27,8.17-5.14,17.09-8.77,25.9-12.59a371.05,371.05,0,0,1,49.7-17.64q12.27-3.36,24.74-6.1c10.4-2.31,20.76-4.7,31.3-6.31,8.6-1.32,17.21-2.32,25.88-3.11,16.11-1.45,32.23-2.41,48.36-1.76,17.55.7,35.06,1.84,52.47,4.67,15.39,2.51,30.66,5.48,45.8,9.15A4.1,4.1,0,0,1,1078.1,112.94Z" transform="translate(-449.58 -97.82)"/><path class="cls-9" d="M1425.06,423.63a205.46,205.46,0,0,1,6.57,30.08c.61,4.39,2.48,8.55,3.43,13,5,23.33,10.32,46.6,15.48,69.9a58.16,58.16,0,0,1,.7,5.93,8.36,8.36,0,0,1-7.77-4.08c-1.1-1.59-2.24-1.38-3.64-.32-6.36,4.85-7.38,4.73-12.38-1.39-.83-1-1.5-2.25-3-1.3-3.45,2.15-7,1.37-10.62.64-1.27-1.42-1.5-3.27-1.88-5q-9.12-41.14-18.08-82.32c-1.4-6.5-3.43-12.89-3.91-19.58,1.38-.35,2.78-1.06,4.15-1,3.45.18,6.36-.57,8.56-3.42.56-.72,1.72-1.35,2.39-.82,2.88,2.29,7.07.33,9.75,3.21.94,1,2.41,1.3,3.27,0C1419.76,424.51,1422.52,424.35,1425.06,423.63Z" transform="translate(-449.58 -97.82)"/><path class="cls-2" d="M1245.1,862.68c-.06-2-.1-4-.19-6,0-.72-.12-1.53-.9-1.82-.45-.17-1.38-.22-1.47,0-1.56,3.33-6.21-2.73-7.14,2.38a4.61,4.61,0,0,1-1.21,2.37c-3.18,3.32-3.13,3.7.37,6.72-3.59.36-4,.48-4.82-1.87-1-3-2.57-3.08-5.3-2.61-2.18.38-4.56-.52-6.86-.77a14.15,14.15,0,0,0-6.74.62c2.71,1.52,4.64,2.55,6.93,1.87a3.46,3.46,0,0,1,3.94.91c1.23,1.31,1.72,2.48-.67,3-.89.19-2.19.5-1.47,1.6,2.38,3.64-.92,3.89-2.79,4.67a6,6,0,0,1-5.23-.65c-2.1-1.16-.88-2.73-.81-4.26.08-1.82-1.48-2.57-2.74-1.21s-2.29,1.93-4.18,1.27c-2.7-1-4.89,0-6.59,2.37-2.42,3.39-5.59,6.06-8.86,8.92-1.48-1.22-.07-2.41-.23-3.47-.33-2.1-1.66-2.8-3.17-1.26s-2.5,1.53-4,.18c-1-.92-2.79-.49-3.82-1.83-.75-1-1.78-.83-2.85,0-3.11,2.31-2-.82-2.38-1.93,10-6.87,20.28-13.19,30-20.35A371.1,371.1,0,0,0,1235,824.36c8.64-8,16.68-16.62,25.07-24.88,3.08-3,5-7.11,8.83-9.49,2.17,4.94,3.17,5.36,8,3,1.46-.73,2.95-1.1,4,.11,1.52,1.8,2.77,2.68,4.83.8.74-.68,1.76-.07,2.56.31,1.35.65,3.91-.65,4,1.55s-2.23,1.83-3.79,2c-1.26.13-2.14.72-1.85,2.07.37,1.69,1.64,2.52,3.24,1.92,1.13-.42,2-1.56,3-2.22,3.15-2,4.61-1.69,7.07,1.27,1.08,1.3,2.22,2.4,4,2.42-4.6,7.2-10.57,13.28-16.3,19.51a442.34,442.34,0,0,1-36.85,36A27.52,27.52,0,0,1,1245.1,862.68Zm-54.43,4.87c-1.87-.12-3.47,1.12-3.33,2.64.1,1,.8,1.49,1.82,1.56,1.81.13,2.53-1.07,3-2.5C1192.47,868.07,1191.63,867.71,1190.67,867.55Z" transform="translate(-449.58 -97.82)"/><path class="cls-10" d="M547,658.14c-1.55-.26-3.26.47-5-1,1.75-2,3.37-4.11,1.24-7-1.13-1.51-2.65-2.18-3.4-.75-2.13,4.08-6,3-9.59,3.56.43,1.69.69,3.19,1.19,4.61,1,2.89.42,4.28-2.36,4.77-1.77.31-3.63.15-5.4.47a3,3,0,0,1-3.35-1.12c-.95-1.48.54-2.2,1.27-3.16A4.88,4.88,0,0,0,522,657c3.21-.84,4.56-2.33,4.3-4.79A2.76,2.76,0,0,0,525,650c-.94-.55-1.68-.06-2.42.49-2.42,1.78-2.51,2.72-.57,6.56a6.27,6.27,0,0,0-1.07.16c-4.24,1.45-4.24,1.45-4,5.89-1.65.81-3.51-.63-5.15.34l.29-.35c0-1.47.48-3.16-1.54-3.83-3.06-9.32-4.61-19-6.8-28.52-3.45-15-6.65-30.08-9.94-45.13a9.76,9.76,0,0,1-.06-1.63,5.16,5.16,0,0,0,3.49-1c2.51-2.06,2.56-2,4.66,1.27,2.37-1.88,3.69-5.06,7.32-5.35,3.34-.28,6.76-.72,9.43-3.26a2.76,2.76,0,0,1,2.06-.32c2.75.46,4.83-.9,6.91-2.32,1,3.41,2.19,6.78,3,10.24,3.59,16,7.06,32,10.59,48C543.22,640.18,545.68,649,547,658.14Z" transform="translate(-449.58 -97.82)"/><path class="cls-1" d="M1351.06,254.69a3,3,0,0,0,1.08-.06c2.8-1.43,5.37-2.71,7.35,1.38.6,1.24,2.46,1.68,4.34,1.46,4.13-.49,8.34-1,12.2,1.36,1.93-6.53,3.72-6.92,8.73-2.26,1.19,1.1,2.18,2.49,4,2.48,2.61,8.09,4,16.48,5.8,24.75,3.18,14.26,6.16,28.56,9.23,42.84-3.27.51-5.26,2.89-7.44,5-2.48,2.43-9.65,3.67-12.51,2.14a4.35,4.35,0,0,1-2.54-3.29,8.51,8.51,0,0,0-1.1-3.57c-.66-1.07-1.75-1.71-2.68-1-2.88,2.24-6.51,1.71-9.63,2.94-1.15-1.49-1.38-3.33-1.77-5.06-1.85-8.07-3.6-16.18-5.36-24.27Q1355.91,277.13,1351.06,254.69Z" transform="translate(-449.58 -97.82)"/><path class="cls-6" d="M666,220.89c4.47,1.06,7.14-2.83,10.76-4.11,2.39-.85,4-1.59,6.44-.13,2.61,1.59,5.53,1.84,7.75-1,1.41-1.78,3.2-1.49,4.93-1,4.38,1.25,8.36,1.11,12.4-1.51,2.85-1.85,6.66-2.09,9.88-1.84s6.86.31,10,1.92a17.16,17.16,0,0,1-4.86,5.07c-9.11,6.55-17.42,14.08-25.56,21.72-8.3,7.79-16.76,15.51-23.85,24.52a3.22,3.22,0,0,1-2.42,1,4.87,4.87,0,0,1-4.26-1.78c-2.67-3.14-2.6-2.18-6.65-1.34-8.34,1.73-15.83,6.4-24.65,6.51-4.45.06-8.89,1.22-13.41,1,4.94-8.08,11.42-15,17.5-22.14a346.25,346.25,0,0,1,24.26-25.7A14.67,14.67,0,0,1,666,220.89Z" transform="translate(-449.58 -97.82)"/><path class="cls-11" d="M527.69,573c-2.08,1.42-4.16,2.78-6.91,2.32a2.76,2.76,0,0,0-2.06.32c-2.67,2.54-6.09,3-9.43,3.26-3.63.29-5,3.47-7.32,5.35-2.1-3.27-2.15-3.33-4.66-1.27a5.16,5.16,0,0,1-3.49,1c-2.92-12.67-5.87-25.33-8.74-38-2-9-3.89-18-5.92-27a16.28,16.28,0,0,1-.67-4.8c3.09-.26,5.33-2.33,7.54-4.06,2.36-1.87,3.93-2.91,7-.91,3.28,2.11,5.76.64,7.21-3.27.56-1.51,1.26-2.89,3-2.33,2,.63.3,2.1.33,3.2,0,.18-.08.36-.07.54.09,1.2-.44,2.71,1.19,3.25s2.45-.52,3-1.7c1.18-2.52,3.37-2.39,5.57-2.35a18.48,18.48,0,0,1,1,2.52c3.28,14.56,6.7,29.1,9.7,43.73C525.36,559.49,527.58,566,527.69,573Z" transform="translate(-449.58 -97.82)"/><path class="cls-12" d="M544.17,811.86a11.55,11.55,0,0,1,7.29,3c2.32-4.46,2.32-4.46,6.5-3,.84.3,2.14,1,2.49.71,2.19-1.95,4.81-.73,7.07-1.29a9.8,9.8,0,0,1,8.31,1.68c1.12-2.84-2.41-7.44,3.29-7.7a17.59,17.59,0,0,1,1.48,3.45c3.43,17.48,8.1,34.69,11.1,52.26-1.57.18-3.28-.49-4.9.88,3.63,4.54.76,9.09.19,13.92-2.73-.68-.85-3.49-2.57-4.39-1.54,0-1.14,1.54-1.78,2.26-.83.95-1.64,2.57-2.59,2.66-5.13.51-9.8,3.84-15.11,2.71a32,32,0,0,0-5.9-.6,11.44,11.44,0,0,1-1.14-7,2,2,0,0,0-.86-1.67c-3.79-14.19-6.61-28.61-9.83-42.94C546.1,821.81,545.18,816.83,544.17,811.86Zm34.52,59.91c1.2-.06,2.17-.4,2-1.89a1,1,0,0,0-1.1-.91c-1,.24-2.25.48-2.41,1.74C577,871.69,578,871.65,578.69,871.77Z" transform="translate(-449.58 -97.82)"/><path class="cls-7" d="M1367.93,328.9c3.12-1.23,6.75-.7,9.63-2.94.93-.73,2-.09,2.68,1a8.51,8.51,0,0,1,1.1,3.57,4.35,4.35,0,0,0,2.54,3.29c2.86,1.53,10,.29,12.51-2.14,2.18-2.13,4.17-4.51,7.44-5,2.6,11.31,5.33,22.59,7.76,33.93,1.94,9,4.34,18,5.61,27.13-3.14-.73-4.48,1.15-5,4-1.5-.58-1.39-1.57-1.61-2.38-.27-1-1.23-1.91-1.89-1.28-2.55,2.38-6.25.62-8.88,2.84-1.47,1.24-3.57,2.18-4.64-.95-.37-1.06-1.34-.59-2.26-.23-4.1,1.6-4.3,1.46-5.12-2.8a2.65,2.65,0,0,0-1-2.05c-2.16,0-4,2.24-6.47,1.76-2.94-12.85-6-25.67-8.77-38.55C1370.17,341.7,1368.15,335.46,1367.93,328.9Z" transform="translate(-449.58 -97.82)"/><path class="cls-4" d="M1374.62,199.08c-1.81.06-3.75-.27-5.41.26-2.53.82-4,.93-4.7-2.24-.4-1.72-2.69-1.68-3.85-.08a27,27,0,0,0-2,3.78c-4.63-1.67-9.47-2.48-13.67-5-3.25-1.92-6,1.45-9.1.64-3.37,4.58-7.08,1.58-10.4.13a7.3,7.3,0,0,0-6.17.12c-3.53,1.38-4.73,1-7-2.27-2.61-3.7-5.65-3.5-8.89-1.06-2.47,1.87-5.15,2.36-7.66,3.57-3.21,1.56-3.46,1.29-3.38-2.3,0-.76.18-1.46-.57-1.83s-1.35,0-1.95.51c-3.61,2.78-3.86,2.86-7.2.28-1.61-1.25-2.91-2.77-5.24-1.64a2,2,0,0,1-2.74-1.09c-1.14-2-3.09-1.52-4.83-1.73,4.81-2.26,10.12-2.64,15.19-3.81,5.9-1.37,11.83-2.63,17.74-4,15.47-3.58,31-6.93,46.54-10.25,12-2.56,20.75,2.95,23.83,14.79.69,2.63,1.11,5.33,1.87,7.93A6.5,6.5,0,0,1,1374.62,199.08Zm-24.3-5.15c-.13-.31-.17-.79-.39-.88s-.6.19-.91.31c.12.31.17.78.39.88S1350,194.05,1350.32,193.93Z" transform="translate(-449.58 -97.82)"/><path class="cls-9" d="M513.3,506.56c-2.2,0-4.39-.17-5.57,2.35-.55,1.18-1.5,2.19-3,1.7s-1.1-2.05-1.19-3.25c0-.18.07-.36.07-.54,0-1.1,1.65-2.57-.33-3.2-1.74-.56-2.44.82-3,2.33-1.45,3.91-3.93,5.38-7.21,3.27-3.11-2-4.68-1-7,.91-2.21,1.73-4.45,3.8-7.54,4.06-1.77-3.24-1.71-6.94-2.54-10.41-2.48-10.32-4.75-20.7-7.06-31.07a22.92,22.92,0,0,1-.26-3.22c4,.75,4-3.08,5.11-5,2.27,0,3.76,2.26,5.5,1.18,3.1-1.91,7.14-1,10-3.66a4.12,4.12,0,0,1,2.47-.86c3.89-.2,7.79-.27,11.69-.38C507.19,475.91,510.46,491.18,513.3,506.56Z" transform="translate(-449.58 -97.82)"/><path class="cls-12" d="M1304,803.2c-1.82,0-3-1.12-4-2.42-2.46-3-3.92-3.23-7.07-1.27-1.07.66-1.91,1.8-3,2.22-1.6.6-2.87-.23-3.24-1.92-.29-1.35.59-1.94,1.85-2.07,1.56-.17,3.91.14,3.79-2s-2.68-.9-4-1.55c-.8-.38-1.82-1-2.56-.31-2.06,1.88-3.31,1-4.83-.8-1-1.21-2.51-.84-4-.11-4.8,2.38-5.8,2-8-3l1-1.08,2.15.18c1,.07,2.09,1.28,2.94.14,1.08-1.44-.51-2.14-1.19-3.09a4.86,4.86,0,0,1-.48-1.51c6.88-9.26,13.73-18.52,20.65-27.75,1.59-2.13,2.59-4.32,1.85-7,2.11-.42,5.12.42,4.64-3.55-.06-.5,1.41-.93,1.77-.33,1,1.6,2.88,1.78,4.06,3.34,1.89,2.47,3.27,5.42,6,7.34,1.9,1.35,1.57,3.46.72,5.43-.38.88-.44,1.88.44,2.42a1.48,1.48,0,0,0,2.22-.76c1.53-3,2.81-2.72,3.49.42.62,2.8,4.13,1.17,5,3.48.63,1.72.33,4.26,3.39,3.84a160.5,160.5,0,0,1-15.9,22.08c-1,1.21-2,2.49-3,3.73-.48-.66-.77-1.88-1.91-1.08-.7.48-.17,1.27.12,1.91.16.32.3.65.44,1A7.92,7.92,0,0,1,1304,803.2Zm-.92-50.45c.94.06,1.3-.29,1.29-.86a.89.89,0,0,0-1-.9c-.73,0-1.42.28-1.19,1.16C1302.3,752.48,1303,752.66,1303.11,752.75Z" transform="translate(-449.58 -97.82)"/><path class="cls-13" d="M503.36,460.75c-3.9.11-7.8.18-11.69.38a4.12,4.12,0,0,0-2.47.86c-2.82,2.62-6.86,1.75-10,3.66-1.74,1.08-3.23-1.18-5.5-1.18-1.14,1.94-1.07,5.77-5.11,5-3.4-13-6.46-26-8.67-39.27,3,.23,5.79-.18,8.16-2.21a2.75,2.75,0,0,1,.9-.59c3.26-1,6.52-2,10-.93,2.44-2.9,6.08-2.88,9.33-3.63,2.54-.6,4.48,2.34,7.19,1.88Q499.44,442.74,503.36,460.75Z" transform="translate(-449.58 -97.82)"/><path class="cls-13" d="M1380.33,386.59c2.47.48,4.3-1.72,6.46-1.76a2.65,2.65,0,0,1,1,2.05c.82,4.26,1,4.4,5.12,2.8.92-.36,1.89-.83,2.26.23,1.07,3.13,3.17,2.19,4.64.95,2.63-2.22,6.33-.46,8.88-2.84.66-.63,1.62.28,1.89,1.28.22.81.11,1.8,1.61,2.38.52-2.83,1.86-4.71,5-4,2.21,5.87,3,12.07,4.35,18.15,1.28,5.9,2.35,11.85,3.51,17.78-2.54.72-5.3.88-7,3.48-.86,1.32-2.33,1-3.27,0-2.68-2.88-6.87-.92-9.75-3.21-.67-.53-1.83.1-2.39.82-2.2,2.85-5.11,3.6-8.56,3.42-1.37-.07-2.77.64-4.15,1-2.17-5-2.66-10.39-3.86-15.61C1384,404.58,1382.24,395.57,1380.33,386.59Z" transform="translate(-449.58 -97.82)"/><path class="cls-10" d="M1460.63,584.08c-2.76.92-4.46-2.22-7.49-1.72-2.07.33-4.46-.58-6.72.39a4.23,4.23,0,0,1-2.13.11c-2-.26-2.58-4.52-5.88-1.58-1.72,1.54-4.32-.9-6.7-.61a63,63,0,0,1-7.53.07h-.54c-2.91-7.37-4-15.17-5.29-22.9a40.13,40.13,0,0,1,5.86.59c7.76,1.22,15.43,3.5,23.43,2.65,2.75-.29,5.33.59,8,1A125.64,125.64,0,0,1,1460.63,584.08Z" transform="translate(-449.58 -97.82)"/><path class="cls-11" d="M1455.61,562.08c-2.64-.41-5.22-1.29-8-1-8,.85-15.67-1.43-23.43-2.65a40.13,40.13,0,0,0-5.86-.59c-2.16-7.14-4-14.33-4.53-21.8,3.59.73,7.17,1.51,10.62-.64,1.51-.95,2.18.28,3,1.3,5,6.12,6,6.24,12.38,1.39,1.4-1.06,2.54-1.27,3.64.32a8.36,8.36,0,0,0,7.77,4.08A76.15,76.15,0,0,1,1455.61,562.08Z" transform="translate(-449.58 -97.82)"/><path class="cls-4" d="M1264.54,190.31c.1.53.2,1.05.29,1.58.55,3.19-.17,4.19-3,3.51-2.2-.54-4.07-1.39-5.23,1.55-.43,1.09-1.65.69-2.15-.1-1.55-2.45-3.09-2.29-5.24-.64-1.85,1.41-3.33.33-4.27-1.55A101.87,101.87,0,0,1,1264.54,190.31Z" transform="translate(-449.58 -97.82)"/><path class="cls-13" d="M562.38,345.27c-2.65,2-5.68,2.27-8.83,2A16.74,16.74,0,0,1,562.38,345.27Z" transform="translate(-449.58 -97.82)"/><path class="cls-4" d="M1377,206.69c-1.14-.12-2.57.34-3.07-1.2-.4-1.25.46-1.88,1.53-2.25C1376.13,204.32,1377.36,205.15,1377,206.69Z" transform="translate(-449.58 -97.82)"/><path class="cls-2" d="M1307.27,799.12c-.14-.33-.28-.66-.44-1-.29-.64-.82-1.43-.12-1.91,1.14-.8,1.43.42,1.91,1.08Z" transform="translate(-449.58 -97.82)"/><path class="cls-9" d="M499.11,359.31c-1.51,1.82-3.57,1-5.43,1.12C495.28,359,497.25,359.4,499.11,359.31Z" transform="translate(-449.58 -97.82)"/><path class="cls-13" d="M552.56,347.44c-1.19,1.49-2.86.94-4.38,1C549.44,347.25,551,347.39,552.56,347.44Z" transform="translate(-449.58 -97.82)"/><path class="cls-13" d="M532.94,351.8c-1.2,1.49-2.87.95-4.4,1C529.81,351.6,531.38,351.74,532.94,351.8Z" transform="translate(-449.58 -97.82)"/><path class="cls-9" d="M488.23,361.62c-1.2,1.45-2.85,1-4.37,1C485.12,361.38,486.69,361.56,488.23,361.62Z" transform="translate(-449.58 -97.82)"/><path class="cls-9" d="M478.43,363.79c-1.2,1.47-2.86,1-4.38,1C475.3,363.55,476.88,363.74,478.43,363.79Z" transform="translate(-449.58 -97.82)"/><path class="cls-2" d="M1240.71,866.74c.12-1.22-.25-3.06,2-1.56A3.17,3.17,0,0,1,1240.71,866.74Z" transform="translate(-449.58 -97.82)"/><path class="cls-13" d="M542.75,349.62c-1.21,1.49-2.87.94-4.4,1C539.62,349.42,541.2,349.57,542.75,349.62Z" transform="translate(-449.58 -97.82)"/><path class="cls-13" d="M450.22,383.41c1,.68,1,1.37,0,2C449.36,384.78,449.36,384.1,450.22,383.41Z" transform="translate(-449.58 -97.82)"/><path class="cls-13" d="M523.13,354c-1.2,1.52-2.88,1-4.42,1C520,353.76,521.57,353.93,523.13,354Z" transform="translate(-449.58 -97.82)"/><path class="cls-13" d="M572.19,343.09c-1.2,1.48-2.86.93-4.38,1C569.08,342.9,570.64,343,572.19,343.09Z" transform="translate(-449.58 -97.82)"/><path class="cls-7" d="M472.9,365.05c-.86,1.07-2.07.83-3.22.85A3.41,3.41,0,0,1,472.9,365.05Z" transform="translate(-449.58 -97.82)"/><path class="cls-7" d="M468.57,366.05c-.89,1.18-2.17.92-3.38.89A3.76,3.76,0,0,1,468.57,366.05Z" transform="translate(-449.58 -97.82)"/><path class="cls-5" d="M510.62,659.26c2,.67,1.5,2.36,1.54,3.83C510.71,662.19,511,660.59,510.62,659.26Z" transform="translate(-449.58 -97.82)"/><path class="cls-9" d="M502.41,358.44c-.88,1.14-2.12.95-3.32.88A3.41,3.41,0,0,1,502.41,358.44Z" transform="translate(-449.58 -97.82)"/><path class="cls-4" d="M1267.79,189.47c-.87,1.11-2.08.88-3.24.85A3.27,3.27,0,0,1,1267.79,189.47Z" transform="translate(-449.58 -97.82)"/><path class="cls-9" d="M512.22,356.25c-.89,1.13-2.12,1-3.33.89A3.47,3.47,0,0,1,512.22,356.25Z" transform="translate(-449.58 -97.82)"/><path class="cls-9" d="M507.86,357.27c-.91,1.2-2.17,1-3.42.9A3.76,3.76,0,0,1,507.86,357.27Z" transform="translate(-449.58 -97.82)"/><path class="cls-4" d="M1242.7,195c-.64.85-1.31.91-2,.07Z" transform="translate(-449.58 -97.82)"/><path class="cls-9" d="M481.66,363a2.25,2.25,0,0,1-2.24.71A2.19,2.19,0,0,1,481.66,363Z" transform="translate(-449.58 -97.82)"/><path class="cls-13" d="M565.59,344.46a2.34,2.34,0,0,1-2.21.69A2.18,2.18,0,0,1,565.59,344.46Z" transform="translate(-449.58 -97.82)"/><path class="cls-7" d="M461,368.18a2.25,2.25,0,0,1-2,1.05A2,2,0,0,1,461,368.18Z" transform="translate(-449.58 -97.82)"/><path class="cls-8" d="M1085.79,115.08a2.23,2.23,0,0,1-2.13-.8A2,2,0,0,1,1085.79,115.08Z" transform="translate(-449.58 -97.82)"/><path class="cls-8" d="M1089.17,116.12a2.16,2.16,0,0,1-2.27-.87A2.33,2.33,0,0,1,1089.17,116.12Z" transform="translate(-449.58 -97.82)"/><path class="cls-13" d="M575.4,342.28a2.32,2.32,0,0,1-2.2.69A2.17,2.17,0,0,1,575.4,342.28Z" transform="translate(-449.58 -97.82)"/><path class="cls-13" d="M535.11,351.72l-1.2,0C534.33,351.13,534.73,351.15,535.11,351.72Z" transform="translate(-449.58 -97.82)"/><path class="cls-7" d="M458.81,369.3l-1.25.93Z" transform="translate(-449.58 -97.82)"/><path class="cls-13" d="M544.92,349.55l-1.19-.05C544.15,349,544.54,349,544.92,349.55Z" transform="translate(-449.58 -97.82)"/><path class="cls-9" d="M490.39,361.52l-1.15,0C489.64,361,490,361,490.39,361.52Z" transform="translate(-449.58 -97.82)"/><path class="cls-2" d="M557,869.69a2,2,0,0,1,.86,1.67A1.68,1.68,0,0,1,557,869.69Z" transform="translate(-449.58 -97.82)"/><path class="cls-8" d="M1081.53,114l-1.12-.63A1,1,0,0,1,1081.53,114Z" transform="translate(-449.58 -97.82)"/><path class="cls-14" d="M568.86,409.66l-33.08-15.32c-2.45-1.13-4.91-2.24-7.83-3.57,2.88-2.17,6-2.27,8.75-2.89,20.66-4.62,41.36-9.05,62-13.59q44-9.66,88-19.39,35-7.74,70-15.56c.32-.07.57-.42.86-.64l4.36-1.05a19.08,19.08,0,0,0,7.62-1.35q33.91-7.46,67.83-14.92,50.63-11.11,101.25-22.2C978,290.51,1017.44,282,1056.78,273c16.36-3.72,32.75-7.3,49.13-10.92,23.13-5.1,46.28-10.06,69.4-15.17,14.84-3.28,29.63-6.73,44.45-10.08,4.75-1.08,9.51-2.09,14.27-3.13L1297.34,220c-3.61,7-9.46,11.56-12.44,18.05-1.5.46-2.2,1.73-3.09,2.88-10.83,14-21.84,27.79-32.51,41.88-4.13,5.44-9,10.38-12.2,16.47-4.67,4.11-7.84,9.47-11.65,14.28q-16.37,20.64-32.3,41.63c-4.59,6.05-9.79,11.65-13.65,18.26a19,19,0,0,0-2.39,2.17c-7.69,9.83-15.49,19.58-22.92,29.6-2.89,3.89-6.53,7.26-8.52,11.8a4.45,4.45,0,0,0-2.34,3.29,4.22,4.22,0,0,0-2,2.21,13.41,13.41,0,0,0-2,1.75c-9.18,11.88-18.3,23.81-27.51,35.67-9.65,12.44-19.44,24.76-29,37.26-2.84,3.71-6.24,7.05-8.09,11.46-3.26,2.19-5,5.67-7.33,8.65-4.15,5.36-4,5.37-9.22,1.5a96.23,96.23,0,0,0-34.42-16.74c-11.76-2.91-23.53-4.61-35.85-3.4a112.53,112.53,0,0,0-38.41,10.65c-9.53,4.6-17.78,11.08-25.63,18.07a60.73,60.73,0,0,0-10.51,12.84c-4.8,4.57-7.24,10.67-10.41,16.27-2.22,3.91-2.48,4.34-6.53,2.5-5.91-2.67-11.68-5.68-17.69-8.1-5.15-2.08-9.8-5.4-15.43-6.3-7.88-5.31-16.85-8.43-25.38-12.42C819,523.34,799.93,514.93,781,506.28c-14.35-6.55-28.58-13.36-43-19.68-4.27-1.87-8.22-4.71-13-5.28-2-2.12-4.86-2.34-7.32-3.37-11.68-4.89-22.73-11.08-34.29-16.22-18.21-8.1-36.29-16.52-54.43-24.81a11,11,0,0,1-5.1-1.62c-7.48-4-15.29-7.24-22.81-11.15C590.55,418.75,579.58,414.44,568.86,409.66Z" transform="translate(-449.58 -97.82)"/><path class="cls-8" d="M671.46,265.6a3.22,3.22,0,0,0,2.42-1c7.09-9,15.55-16.73,23.85-24.52,8.14-7.64,16.45-15.17,25.56-21.72a17.16,17.16,0,0,0,4.86-5.07,8.25,8.25,0,0,0,4.45-1.87,403.5,403.5,0,0,1,38.09-24.95c10-5.78,20.56-10.64,30.95-15.76,16.77-8.27,34.42-14.29,52.12-19.95a264.32,264.32,0,0,1,39.44-9.47c8.18-1.28,16.31-2.92,24.51-4,3.74-.52,7.51-.9,11.28-1.31,2.34-.25,4.7-.11,6.82-1.38,1-.59,2-.35,3.12-.24a83.57,83.57,0,0,0,18.36-.28c6.59-.79,13.37-1.08,20,.38a13,13,0,0,0,3.77.33c8.18-.66,16.26.83,24.36,1.34a270.2,270.2,0,0,1,31.56,4.36c12.42,2.28,24.72,5.1,36.85,8.56,9.21,2.63,18.36,5.48,27.4,8.69a350.34,350.34,0,0,1,39.55,16.41c9.69,4.84,19.12,10.19,28.6,15.43,3.48,1.92,6.77,4.19,10.14,6.3h1.07a3.35,3.35,0,0,0,3.27,2.19,59.81,59.81,0,0,0,9.21,6.87c-24.89,6.34-49.74,11.85-74.64,17.15q-27.5,6-55,12c-14.81,3.27-29.6,6.65-44.41,9.92-19.74,4.36-39.5,8.61-59.23,13-14.28,3.17-28.52,6.49-42.79,9.67q-27.22,6.06-54.47,12c-27,5.9-54,11.73-80.95,17.68-18.16,4-36.27,8.24-54.42,12.26-22.74,5-45.51,9.89-68.25,14.9-11.08,2.44-22.12,5-34.18,7.79,2.32-3.94,4.09-7.15,6-10.24a524.88,524.88,0,0,1,35.09-48.25C667.8,270.42,670.93,269,671.46,265.6Z" transform="translate(-449.58 -97.82)"/><path class="cls-7" d="M769.54,336.3a19.08,19.08,0,0,1-7.62,1.35c.09-3,2.37-3.81,4.62-4.24C768.47,333,769.35,334.49,769.54,336.3Z" transform="translate(-449.58 -97.82)"/><path class="cls-14" d="M1413.82,536c.51,7.47,2.37,14.66,4.53,21.8,1.33,7.73,2.38,15.53,5.29,22.9,0,5.52,1.78,10.72,2.93,16,5.77,26.54,11.75,53,17.63,79.54,1.08,4.85.61,5.72-4.17,6.78-23.33,5.18-46.68,10.27-70,15.44-12,2.67-24,5.5-36,8.17-10.78,2.4-21.62,4.53-32.37,7.06-18.12,4.26-36.47,7.45-54.49,12.17a2.24,2.24,0,0,0-2.25.77c-1.17.07-2.38,0-3.38.79l-2,.38c-2.75,0-5.44.22-7.78,1.87-2.69.4-5.38.51-8.07,1.13-18.16,4.17-36.36,8.2-54.56,12.22q-44,9.7-88,19.35-35,7.73-69.95,15.53-44.25,9.78-88.52,19.5c-18.2,4-36.38,8.13-54.58,12.14Q819.28,820.36,770.49,831c-17.49,3.84-35,7.52-52.48,11.55-7.19,1.66-14.55,2.66-21.53,5.22-8.46.93-16.64,3.27-24.93,5.06-24.54,5.32-49,10.89-73.53,16.35-3.43.76-4.17.33-4.93-3.08-.4-1.76-.38-3.61-1.39-5.2-3-17.57-7.67-34.78-11.1-52.26a17.59,17.59,0,0,0-1.48-3.45c-1-10.31-3.94-20.25-6.12-30.33-5.61-26-11.11-52-17.36-77.91-3.12-12.91-4.81-26.11-8.64-38.85-1.32-9.1-3.78-18-5.75-26.92-3.53-16-7-32-10.59-48-.78-3.46-2-6.83-3-10.24-.11-6.92-2.33-13.47-3.71-20.15-3-14.63-6.42-29.17-9.7-43.73a18.48,18.48,0,0,0-1-2.52c-2.84-15.38-6.11-30.65-9.94-45.81q-3.93-18-7.85-36c.81-3.65,3.13-.8,4.72-1.1.26.25.46.6.77.74,11.36,5.22,22.64,10.63,34.13,15.55,7.65,3.27,14.85,7.59,22.88,10,1.21,1.47,3,2,4.63,2.71,19.39,8.84,38.74,17.77,58.22,26.4,6.25,2.77,12.16,6.39,18.88,8.06,1,1.17,2.4,1.6,3.7,2.2,14.48,6.69,28.95,13.41,43.46,20,18.45,8.43,37,16.74,55.42,25.15,10.88,5,21.63,10.25,32.62,14.95,4.29,1.84,8.23,4.67,13,5.3,1.29,1.36,3.06,1.91,4.68,2.66,8.51,3.95,17.08,7.8,25.6,11.73,15.58,7.19,31.12,14.46,46.74,21.55,2.91,1.32,5.73,3.13,9.1,3.28l.06,0a1.48,1.48,0,0,0,1.19,1c3.78,2.55,8.12,4,12.2,5.88,3,1.41,4.65,3.06,4.27,6.55-.5,4.56.5,9.1,1.33,13.49,5.37,28.36,19.53,51.33,43.36,67.83,21.9,15.16,46.17,21,72.76,17.7,22-2.72,41-12,57.31-26.53,14.25-12.68,23.5-28.69,29.2-46.81,4.83-15.35,5.41-31,3-46.77a76.37,76.37,0,0,0-7.29-25.39c-1.44-3.1-1.16-5.29.8-7.92,2.24-3,5.25-5.5,6.64-9.13,8.94-10.13,17.06-20.9,25-31.82,1.12-3,3.93-4.52,5.77-6.9,14.27-18.5,28.72-36.86,42.92-55.41,3.49-4.57,7.8-8.55,10.28-13.87,2.07-1.34,3-3.59,4.34-5.5a4.06,4.06,0,0,0,2.32-3.22,4.24,4.24,0,0,0,2-2.26,2.61,2.61,0,0,0,1.29-2,32.86,32.86,0,0,0,3.08-3.05c5.28-6.68,10.64-13.29,15.67-20.15,4.81-6.56,10.46-12.49,14.66-19.5.47-2.39,2.9-3.05,4.2-4.77,9.64-12.63,19.46-25.13,29.17-37.7q13.9-18,27.73-36.05c8.06-10.22,16-20.51,24.2-30.63,5.9-7.29,11-15.18,16.67-22.61,5.07-4.41,8.41-10.25,12.64-15.36,1.13-1.37,2-3,4.1-4,2.7,8.53,3.84,17.26,6.12,25.71q4.86,22.44,9.74,44.88c1.76,8.09,3.51,16.2,5.36,24.27.39,1.73.62,3.57,1.77,5.06.22,6.56,2.24,12.8,3.62,19.14,2.8,12.88,5.83,25.7,8.77,38.55,1.92,9,3.72,18,5.77,27,1.2,5.22,1.69,10.63,3.86,15.61.48,6.69,2.51,13.08,3.91,19.58q8.88,41.19,18.08,82.32C1412.32,532.77,1412.55,534.62,1413.82,536Z" transform="translate(-449.58 -97.82)"/><path class="cls-15" d="M1295.81,749.87c.74,2.69-.26,4.88-1.85,7-6.92,9.23-13.77,18.49-20.65,27.75a6.32,6.32,0,0,0-3.42,4.28l-1,1.08c-3.79,2.38-5.75,6.45-8.83,9.49-8.39,8.26-16.43,16.89-25.07,24.88a371.1,371.1,0,0,1-33.09,27.11c-9.77,7.16-20.09,13.48-30,20.35-7.51,4-15.06,7.87-22.52,11.94a335.41,335.41,0,0,1-35.54,16.34,371.49,371.49,0,0,1-58.59,18q-17.18,3.81-34.64,6.25a345.21,345.21,0,0,1-43.8,3.25c-4.12,0-8.32,1.49-12.42.74-9.69-1.77-19.5-.81-29.25-1.63-9.36-.79-18.66-2.24-28-2.93s-18.4-3.56-27.53-5.72c-9.85-2.33-19.76-4.51-29.35-7.89a8.92,8.92,0,0,0-2.15-.2,423.13,423.13,0,0,1-86.69-39.69c8.08-1.84,14.84-3.41,21.62-4.9,15.19-3.35,30.39-6.64,45.59-10L903.29,839q49.56-10.9,99.1-21.83c17.66-3.9,35.3-7.93,53-11.85q36.83-8.17,73.65-16.3c1.59-.35,3.15-.82,4.73-1.23l3.69-.84,74.23-16.18c15.56-3.39,31.15-6.62,46.64-10.29,7.56-1.8,15.35-2.64,22.68-5.36a2.75,2.75,0,0,0,2.31-.77c3.82-.35,7.78-.16,10.9-3C1295.1,751.26,1294.79,749.82,1295.81,749.87Z" transform="translate(-449.58 -97.82)"/><path class="cls-12" d="M1294.18,751.31c-3.12,2.87-7.08,2.68-10.9,3-.28-.76-.15-2.08-1.34-1.85-1.39.26-.84,1.65-1,2.62-7.33,2.72-15.12,3.56-22.68,5.36-15.49,3.67-31.08,6.9-46.64,10.29l-74.23,16.18-3.69.84c-1.14-3.14-4-2.83-6.28-2.54a4.87,4.87,0,0,1-4.72-1.52c-2.06-2-4.4-1.89-6.58.22s-4.71,2.23-7.73,2.54c-5.56.58-11.08.08-16.52-.07S1081.3,788,1076,787a3.36,3.36,0,0,0-3.29,1.49c-1.46,1.69-3.42,2.68-5.17,3.95-1.26.92-2.57,1.29-4,.28-.35-1.23.71-1.53,1.31-2.12.88-.84,1.27-1.75.43-2.85-.56-.72-1.19-1.52-2.12-1.57-1.36-.07-1.54,1.28-2.12,2.15-.76,1.15.49,2.49-.39,3.63-2.2.79-3.81-.56-5.52-1.52a26.48,26.48,0,0,0-3.75-2.15c-2.9-1.06-4.18-.32-4.86,2.72a5.82,5.82,0,0,1-1.24,2.94c-1.12,1.2-2.12,1.64-3.69.38-2.41-1.93-3.86-1.41-4.77,1.44-.26.85,0,1.86-.37,2.68-.71,1.83-2.23,1.59-3.61,1a1.69,1.69,0,0,1-.89-2.66c1-1.45,3.87-2.29,1.5-4.72-1.2-1.23-6.21-1.59-7.12-.09-2.27,3.76-7,1.37-9.48,4.36-.41.5-1.43.06-2-.41-2.11-1.77-4.19-2-6.35-.09-2,1.7-3.11-1.46-4.91-.87-1.14,1.29-.21,2.25.38,3.39,1.66,3.26,1.09,4.71-2.3,6.39-2.65,1.32-4.53.49-5.88-2.73a35.32,35.32,0,0,1-1.07-3.88,6.7,6.7,0,0,0-5,3.55c-2.77,4.64-5,5.19-9.39,2.47a4.46,4.46,0,0,0-2.49-.93,3.21,3.21,0,0,1-3.63-2.45c-.91-2.53-4.16-1.92-5.79-3.65-.12-.13-.75,0-1,.22-.84.84-.83,2.45-2.52,2.54-1,.06-2.22-.25-3.06,1a4.18,4.18,0,0,0,.41,1.35c1,1.4,1.89,2.78.38,4.35-1.26,1.32-2.62.68-4,.18-2.72-1-5.39-1.92-8.39-.54-1.45.67-3.07,0-4.64-.78-3.13-1.57-6.42-3.7-9.12,1.05-1,1.77-2.74.77-4.22-.27-3.45-2.42-3.63-2.37-4.61,1.91-.38,1.69-.92,2.47-2.71,2.69a57.3,57.3,0,0,1-14.21.28,3.74,3.74,0,0,0-3.06.61c-.86.68-1.86,1.55-2.92,1-2.57-1.25-4.5-.55-6.26,1.44-.5.57-1.46,1-1.93.52-2.77-2.77-5.32-1-7.93.2a.86.86,0,0,1-.52.12c-4.71-1.75-9,1.31-13.52,1.25-1.26,0-3.17-.26-3.65.4-2.29,3.22-5.1,2.32-8.17,1.85s-6.23-.56-7.23,3.69c-.53,2.23-2.4,1.64-4,1.23-2.25-.57-4.41-2.39-6.76-1.48-2.71,1-5.72,1.33-8.19,2.55a17.42,17.42,0,0,1-7.27,1.59,18.59,18.59,0,0,0-7.77,2c-1.15.6-2.35,1.62-3.5,1-2.94-1.51-5,.25-6.8,1.82-2.23,1.93-4.19,2.17-7.22,2-5.3-.34-10.7.94-15.94,2.34-5.6,1.51-11.06,4-17.13,2.83a3.53,3.53,0,0,0-3,1,5.28,5.28,0,0,1-4.09,1.1c-2.32-.18-4.33.33-5.81,2.24-2,2.58-4.36,2.46-6.61.62-1.86-1.54-3.37-1.78-5.17,0-.62.6-1.75,1.33-2.4,1.14-4.92-1.46-9.5,2.07-14.49.73a13.34,13.34,0,0,0-11.46,1.84c-2.82,2-6.6,2.06-9,4.86-.89,1-2.38.61-3.59.1a6.58,6.58,0,0,0-4.79-.29c-3.62,1.27-4-.93-4.06-3.6,7-2.56,14.34-3.56,21.53-5.22,17.45-4,35-7.71,52.48-11.55q48.78-10.71,97.55-21.45c18.2-4,36.38-8.12,54.58-12.14q44.25-9.78,88.52-19.5,35-7.74,69.95-15.53,44-9.7,88-19.35c18.2-4,36.4-8.05,54.56-12.22,2.69-.62,5.38-.73,8.07-1.12.24,1.7,1.25,4.14,2.66,3.33,4.36-2.47,5.68,1.26,8,3.11a8.19,8.19,0,0,0,1.7,1.27,1.83,1.83,0,0,0,2.41-.55,1.42,1.42,0,0,0-.68-1.86c-2.13-1.32-2.17-3-1.36-5.16a13.87,13.87,0,0,0,.45-3.19,2.24,2.24,0,0,1,2.25-.77c1.3,3.26-.47,7.14,1.89,10.16,1.25.26,1.7-.59,2.28-1.27,2.67-3.17,6.56-2.9,7.1,1,.71,5.06,3.75,6.41,7.74,7.48a15.21,15.21,0,0,1,3.07,1.7c1.22-1.65.94-3.35.25-5a4.1,4.1,0,0,1,1.22-4.91c.94-.87,2-.32,2.93.4a4.8,4.8,0,0,1,1.65,5.36,3.63,3.63,0,0,1-.9,1.31c-1.27,1.4-1.32,2.51.66,3.27,1.8.69,3.47,1.24,4.35-1.28a5.36,5.36,0,0,0,.1-3.72c-.32-.87-.63-1.84.43-2.33a2.79,2.79,0,0,1,3.08.4,4.92,4.92,0,0,1,1.9,4.28c-.08.71-.52,1.38-.58,2.09-.15,2-.34,4.22,2.37,4.71,1.6.29,3.82-3,3.48-5.18-.19-1.24-.81-2.41,0-3.63,1.65-.65,2.22,1,3.1,1.62,3,2.24,3,2.39-.1,5.15C1290.86,749.54,1294.31,749.91,1294.18,751.31Zm-66.33-19.08c.36,2.51.62,4.06.78,5.62.18,1.75,1.44,2.35,2.85,2.73.83.23,1.21-.5,1.63-1.09a2.82,2.82,0,0,0-.3-3.89A39.24,39.24,0,0,0,1227.85,732.23Zm10.09,5.51a1,1,0,0,0-1-1c-.32,0-.85.17-.91.38-.17.58.25,1,.77,1.18A.82.82,0,0,0,1237.94,737.74Z" transform="translate(-449.58 -97.82)"/><path class="cls-2" d="M1241.06,860.25a1.22,1.22,0,0,1-1.63.38.82.82,0,0,1-.38-1.23,1.07,1.07,0,0,1,1.35-.4C1240.89,859.15,1241.35,859.42,1241.06,860.25Z" transform="translate(-449.58 -97.82)"/><path class="cls-2" d="M1228.37,869.75a1.07,1.07,0,0,1-.8.45c-1,0-1-.71-.91-1.41.08-.52.39-1,1-.8S1228.44,868.61,1228.37,869.75Z" transform="translate(-449.58 -97.82)"/><path class="cls-1" d="M1328.2,248.29c-5.7,7.43-10.77,15.32-16.67,22.61-8.18,10.12-16.14,20.41-24.2,30.63a5.45,5.45,0,0,1-4-1.27c-2.67-2.07-5.39-2.82-8.32-.2-1,.9-2.44,1.78-4,.87-2.91-1.7-6.72-1.46-9-4.54-1.29-1.72-3.13-1.8-4.58.06-.82,1.06-1.65,2.23-3.07,1.52-3.53-1.77-6.31-.18-9,1.78-2.93,2.14-5.63,1.93-8.25-.46,3.25-6.09,8.07-11,12.2-16.47,10.67-14.09,21.68-27.92,32.51-41.88.89-1.15,1.59-2.42,3.09-2.88,4.34,1.66,8.69,3.31,13,5,1.16.45,2.63.73,3.34,1.6,1.57,1.93,2.76,2.89,4.45.21a2,2,0,0,1,2.44-.56c.84.27,2.11.8,2.57.43,4-3.15,6.34-.2,9.08,2C1322.24,248.78,1325.37,248,1328.2,248.29Z" transform="translate(-449.58 -97.82)"/><path class="cls-4" d="M1232.49,195.42a1.33,1.33,0,0,1-1.45,1.37c-1.13.05-2.19-.18-2.21-1.63a1.3,1.3,0,0,1,1.36-1.35A2.16,2.16,0,0,1,1232.49,195.42Z" transform="translate(-449.58 -97.82)"/><path class="cls-4" d="M1368.17,205.7c1,.08,1.88.33,1.64,1.54a1.72,1.72,0,0,1-3.36-.19C1366.33,205.91,1367.31,205.72,1368.17,205.7Z" transform="translate(-449.58 -97.82)"/><path class="cls-4" d="M1183.88,198a3.35,3.35,0,0,1-3.27-2.19C1182.2,195.79,1183.8,195.76,1183.88,198Z" transform="translate(-449.58 -97.82)"/><path class="cls-4" d="M1299.89,203.73c.13-.3.2-.77.42-.86s.58.22.88.35c-.13.3-.2.77-.41.86S1300.19,203.87,1299.89,203.73Z" transform="translate(-449.58 -97.82)"/><path class="cls-13" d="M558,449.91c-8-2.39-15.23-6.71-22.88-10C523.64,435,512.36,429.6,501,424.38c-.31-.14-.51-.49-.77-.74,1.8-3.93,1.75-3.69,5.49-2.91,2.51.53,5.22-.19,7.8.63a1.49,1.49,0,0,0,1.69-1.06c1.81-5,6.17-4.05,9.77-3.69,4,.39,7.84,1.61,11-1.92,3.33.52,6.51-2.92,9.93-.35a2.32,2.32,0,0,0,2.57.3c3.42-2.17,7-1.29,10.65-.92,1.79.18,8.4-2.63,9.68-4.06,10.72,4.78,21.69,9.09,32.09,14.49,7.52,3.91,15.33,7.19,22.81,11.15a11,11,0,0,0,5.1,1.62c.33,2.86-.55,4.5-3.83,4.25a27.89,27.89,0,0,0-8.6.84,15.41,15.41,0,0,1-7,0c-4.64-1.15-8.75.21-13,1.5-3.31,1-6.6,3-10.34,1.11s-5.61-1.5-8,1.53c-1.36,1.72-2.5,3.38-4.79,2-1.92-1.13-3.69,1.09-5.7-.34C562.81,444.47,561.14,445,558,449.91Z" transform="translate(-449.58 -97.82)"/><path class="cls-3" d="M1190.67,867.55c1,.16,1.8.52,1.45,1.7-.43,1.43-1.15,2.63-3,2.5-1-.07-1.72-.52-1.82-1.56C1187.2,868.67,1188.8,867.43,1190.67,867.55Z" transform="translate(-449.58 -97.82)"/><path class="cls-5" d="M522.05,657.05c-1.94-3.84-1.85-4.78.57-6.56.74-.55,1.48-1,2.42-.49a2.76,2.76,0,0,1,1.28,2.23c.26,2.46-1.09,3.95-4.3,4.79Z" transform="translate(-449.58 -97.82)"/><path class="cls-2" d="M578.69,871.77c-.7-.12-1.68-.08-1.55-1.06.16-1.26,1.39-1.5,2.41-1.74a1,1,0,0,1,1.1.91C580.86,871.37,579.89,871.71,578.69,871.77Z" transform="translate(-449.58 -97.82)"/><path class="cls-6" d="M1350.32,193.93c-.31.12-.7.4-.91.31s-.27-.57-.39-.88c.31-.12.69-.41.91-.31S1350.19,193.62,1350.32,193.93Z" transform="translate(-449.58 -97.82)"/><path class="cls-2" d="M1269.89,788.91a6.32,6.32,0,0,1,3.42-4.28,4.86,4.86,0,0,0,.48,1.51c.68,1,2.27,1.65,1.19,3.09-.85,1.14-2-.07-2.94-.14Z" transform="translate(-449.58 -97.82)"/><path class="cls-5" d="M1303.11,752.75c-.15-.09-.81-.27-.89-.6-.23-.88.46-1.15,1.19-1.16a.89.89,0,0,1,1,.9C1304.41,752.46,1304.05,752.81,1303.11,752.75Z" transform="translate(-449.58 -97.82)"/><path class="cls-11" d="M1123.87,511.94c-7.91,10.92-16,21.69-25,31.82-3.66-3.76-5-4.37-8.8-2.16-2.88,1.69-6.35,1.33-9,3.34a1.21,1.21,0,0,1-1.85-.35c-1.65-2.1-3.22-3.15-4.7.18a1.59,1.59,0,0,1-2.32.7c-1.74-1.05-4-.15-5.8-1.7.54-2.18,1.31-4.43.33-7-1.83,3.12-2.29,6.54-3.51,10-4.54-1.51-8.53-3.77-13.26-4.08a43,43,0,0,0-16,1.92c-2.77.87-4.94,1.56-7.55-.37-1.53-1.12-3.56-1.12-4,1.63-1.25.07-2.22-.65-3.26-1.19l-1.26-1a10.9,10.9,0,0,1-2.15-.26C1004,539.73,992.08,539,980,542.3a24.71,24.71,0,0,1-4.32.42c0-1.67-.21-3.27-1.64-4.41-.69-.54-1.8-1.46-2.25-.41-1.59,3.71-3.84,1.73-5.58.61-2.54-1.64-3.49,1-3.15,1.67,1.56,3-.52,2.3-2,2.35-2.27.09-4.42,0-5.17-2.79a2,2,0,0,0-2-1.5c-3.06-.14-6.58-1.25-9.06-.12-3.06,1.4-5.27,1-7.88-.76a9.83,9.83,0,0,0-.34,2c.1,1.13,1.28,2.53-.81,3a2.51,2.51,0,0,1-3-1.69,7.78,7.78,0,0,1-.64-1.49c-.38-1.59-1.28-2.13-2.76-1.36-4.42,2.29-10-.68-14.13,3.18-.21.2-1.27-.5-1.94-.78a60.73,60.73,0,0,1,10.51-12.84c7.85-7,16.1-13.47,25.63-18.07a112.53,112.53,0,0,1,38.41-10.65c12.32-1.21,24.09.49,35.85,3.4a96.23,96.23,0,0,1,34.42,16.74c5.21,3.87,5.07,3.86,9.22-1.5,2.31-3,4.07-6.46,7.33-8.65.9,0,2,.36,2.67,0,4-2.48,7.8-1.29,11.57.56a6.64,6.64,0,0,0,5.26.43c5.48-2.14,10.23-.16,14.85,2.35,1.59.85,2.77,1.27,4.42.19C1114.81,511.27,1121.59,511.34,1123.87,511.94Z" transform="translate(-449.58 -97.82)"/><path class="cls-11" d="M788,554.7c-4.79-.63-8.73-3.46-13-5.3-11-4.7-21.74-10-32.62-14.95-18.46-8.41-37-16.72-55.42-25.15-14.51-6.61-29-13.33-43.46-20-1.3-.6-2.72-1-3.7-2.2.19-1.49.76-2.53,2.45-1.62,2.13,1.15,4.38,1.93,6.76,1.37,3-.7,5.8-3.25,8.88-.17.26.27,1.32-.32,2-.42,6.4-.93,12.76-.15,19.06.87a11.52,11.52,0,0,0,4.64-.14c6-1.3,12.29-.08,18.23-2.08,2.72,1.55,4.66.34,6.7-1.54,1.22-1.12,3-2.57,4.79-.82,3.22,3.16,6.82.94,10.24.88,1,0,1.22-1.18,1.38-2.09,4.81.57,8.76,3.41,13,5.28,14.45,6.32,28.68,13.13,43,19.68,19,8.65,38,17.06,56.91,25.91,8.53,4,17.5,7.11,25.39,12.42.1,2-.21,3.89-2,5.09-2-.88-2.89-4.51-4.62-3.19-2.85,2.16-4.64.43-6.9-.33-1.84-.61-2.81.1-2.5,2.13a9.37,9.37,0,0,1,.43,2.09,1.74,1.74,0,0,1-1.39,1.49,1.56,1.56,0,0,1-1.83-.79,7.52,7.52,0,0,1-.71-2c-.48-2.36-1.59-2.56-3.34-1.1s-4.37,2.31-6,1.5c-3.15-1.62-6.75-.29-9.7-2.2a1.48,1.48,0,0,0-2.29.53c-.4.81.25,1.37.78,1.83.95.82,2.35,1.51.87,3-.9.88-2.1,1.82-3.33,1.39-1.6-.56-1-2.07-.69-3.27.15-.67.66-1.31.12-2-3.9,0-3.83.1-6.95,2.36-1.83,1.32-3.75,2-5.83-.08-1.34-1.32-2.82-3.13-5-2.78a72,72,0,0,0-13,3.27C787.82,552,788.18,553.51,788,554.7Z" transform="translate(-449.58 -97.82)"/><path class="cls-10" d="M788,554.7c.22-1.19-.14-2.67,1.42-3.23a72,72,0,0,1,13-3.27c2.2-.35,3.68,1.46,5,2.78,2.08,2,4,1.4,5.83.08,3.12-2.26,3-2.35,6.95-2.36.54.71,0,1.35-.12,2-.27,1.2-.91,2.71.69,3.27,1.23.43,2.43-.51,3.33-1.39,1.48-1.44.08-2.13-.87-3-.53-.46-1.18-1-.78-1.83a1.48,1.48,0,0,1,2.29-.53c2.95,1.91,6.55.58,9.7,2.2,1.58.81,4.21,0,6-1.5s2.86-1.26,3.34,1.1a7.52,7.52,0,0,0,.71,2,1.56,1.56,0,0,0,1.83.79,1.74,1.74,0,0,0,1.39-1.49,9.37,9.37,0,0,0-.43-2.09c-.31-2,.66-2.74,2.5-2.13,2.26.76,4,2.49,6.9.33,1.73-1.32,2.67,2.31,4.62,3.19,1.82-1.2,2.13-3.05,2-5.09,5.62.9,10.27,4.22,15.42,6.3,6,2.42,11.78,5.43,17.69,8.1,4,1.84,4.31,1.41,6.53-2.5,3.17-5.6,5.61-11.7,10.41-16.27.67.28,1.73,1,1.94.78,4.11-3.86,9.71-.89,14.13-3.18,1.48-.77,2.38-.23,2.76,1.36a7.78,7.78,0,0,0,.64,1.49,2.51,2.51,0,0,0,3,1.69c2.09-.49.91-1.89.81-3a9.83,9.83,0,0,1,.34-2c2.61,1.71,4.82,2.16,7.88.76,2.48-1.13,6,0,9.06.12a2,2,0,0,1,2,1.5c.75,2.76,2.9,2.88,5.17,2.79,1.47,0,3.55.63,2-2.35-.34-.65.61-3.31,3.15-1.67,1.74,1.12,4,3.1,5.58-.61.45-1,1.56-.13,2.25.41,1.43,1.14,1.64,2.74,1.64,4.41-.69,1.17-1.86,1.56-3.06,2.07q-25.29,10.82-34.9,36.65c-.5,1.36-.75,2.81-2,3.74-1.24.05-2.56-.45-3.79.43,1.14.91,2.39.38,3.52.63a9.73,9.73,0,0,1-1.05,5.3c-.92,0-2,0-2.48-.82-2.07-3.25-4.78-2.61-7.61-1.4-1,.43-2,.88-2.9,1.4-1.49.84-3.31,1.7-4.23-.17s.63-3.08,2.47-3.24c2.25-.18,2.62-1.52,2.53-3.34.54-.17.63-.33.26-.43,0,0-.16.29-.24.45-4-.61-10.46-.61-12,0-.17-.53-.33-.63-.41-.26,0,0,.29.15.44.23,1.24,4.93-.44,8-5,8.29-1.87.14-3.85-.68-5.71-1.26-1-.3-1.7-1.64-2.87-1.15-2.32,1-3.15-.37-4.17-2.09-1.68-2.83-3.79-2.85-6.46-.48a42.34,42.34,0,0,1-4.22,3.18,2.75,2.75,0,0,1-3,.4c-3.61-1.51-3.66-1.39-4.72,3.06-3.37-.15-6.19-2-9.1-3.28-15.62-7.09-31.16-14.36-46.74-21.55-8.52-3.93-17.09-7.78-25.6-11.73C791,556.61,789.25,556.06,788,554.7Zm125.53,24.9c.37.49.61,1.46,1.43.42l-1.46-.39c0-.52,0-1-.1-1.57-.1-.76-.52-1.43-1.32-1.12s-.7,1.16-.36,1.8S912.79,579.5,913.49,579.6ZM804.25,555a2.44,2.44,0,0,0-2.34-2.46c-1.2-.11-2.42.49-2.38,1.66.07,1.95,2.16,1.47,3.34,2C803.54,556.56,804.17,555.91,804.25,555Zm98.5,32c-.06,1.5.31,2.09,1,2.26s1.55.57,2.12-.46Zm-21.76.31c.27-.4.19-.82-.26-.86a2.07,2.07,0,0,0-1.45.31.68.68,0,0,0,.35,1.18A1.22,1.22,0,0,0,881,587.28Z" transform="translate(-449.58 -97.82)"/><path class="cls-9" d="M1123.87,511.94c-2.28-.6-9.06-.67-10.42.22-1.65,1.08-2.83.66-4.42-.19-4.62-2.51-9.37-4.49-14.85-2.35a6.64,6.64,0,0,1-5.26-.43c-3.77-1.85-7.54-3-11.57-.56-.65.4-1.77.05-2.67,0,1.85-4.41,5.25-7.75,8.09-11.46,9.57-12.5,19.36-24.82,29-37.26,9.21-11.86,18.33-23.79,27.51-35.67a13.41,13.41,0,0,1,2-1.75c.06,1.08-.11,2.24.63,3.13s1.56,1.37,2.54,0c3.24-4.41,6.93-7.4,12.77-4.17,1.3.73,2.91,1.37,4.46-.2,1.71-1.72.56-2.76-.41-4.13a2,2,0,0,1,.22-2.52c.83-.85,1.81-.29,2.43.24,2.28,1.93,5.67,2.35,7.12,5.49.74,1.6,2,1,3.05,0,2.26-2,3.08-.13,3.89,1.57.62,1.32.09,2.44-.75,3.48s-1.53,2.48-.23,3.33c2.7,1.78,3.17,5.26,5.78,7-2.48,5.32-6.79,9.3-10.28,13.87-14.2,18.55-28.65,36.91-42.92,55.41C1127.8,507.42,1125,509,1123.87,511.94Z" transform="translate(-449.58 -97.82)"/><path class="cls-7" d="M1237.1,299.29c2.62,2.39,5.32,2.6,8.25.46,2.69-2,5.47-3.55,9-1.78,1.42.71,2.25-.46,3.07-1.52,1.45-1.86,3.29-1.78,4.58-.06,2.3,3.08,6.11,2.84,9,4.54,1.54.91,3,0,4-.87,2.93-2.62,5.65-1.87,8.32.2a5.45,5.45,0,0,0,4,1.27q-13.86,18-27.73,36.05c-9.71,12.57-19.53,25.07-29.17,37.7-1.3,1.72-3.73,2.38-4.2,4.77-1.6.08-3.08,0-4.48,1.36a10.8,10.8,0,0,1-8,2.74c-.22-5,4-4.83,6.7-6.61-3.46-.14-6.38-2.76-10.14-.18a5.32,5.32,0,0,1-7.31-1.26c-1.56-2.05-3.59-1.78-5.51-.89-.47,2.5,3,3,1.68,6.35-2.33-3.23-5.77-1-8.37-2.46-4.3-2.42-7.69-1.77-10.54,2.22-.35.49-.93.34-1.45,0-1.43-2.74,1.08-5.2.64-7.88,3.86-6.61,9.06-12.21,13.65-18.26q15.93-21,32.3-41.63C1229.26,308.76,1232.43,303.4,1237.1,299.29Zm-42.37,74.16c-.11-.68-.09-1.57-1-1.54-1.31,0-1.49,1.27-1.77,2.2a1,1,0,0,0,1,1.38C1194.46,375.55,1194.67,374.55,1194.73,373.45Z" transform="translate(-449.58 -97.82)"/><path class="cls-9" d="M724.9,481.32c-.16.91-.38,2.08-1.38,2.09-3.42.06-7,2.28-10.24-.88-1.79-1.75-3.57-.3-4.79.82-2,1.88-4,3.09-6.7,1.54-5.94,2-12.24.78-18.23,2.08a11.52,11.52,0,0,1-4.64.14c-6.3-1-12.66-1.8-19.06-.87-.71.1-1.77.69-2,.42-3.08-3.08-5.91-.53-8.88.17-2.38.56-4.63-.22-6.76-1.37-1.69-.91-2.26.13-2.45,1.62-6.72-1.67-12.63-5.29-18.88-8.06-19.48-8.63-38.83-17.56-58.22-26.4-1.62-.74-3.42-1.24-4.63-2.71,3.13-5,4.8-5.44,9.51-2.11,2,1.43,3.78-.79,5.7.34,2.29,1.36,3.43-.3,4.79-2,2.4-3,4.37-3.34,8-1.53s7-.12,10.34-1.11c4.3-1.29,8.41-2.65,13-1.5a15.41,15.41,0,0,0,7,0,27.89,27.89,0,0,1,8.6-.84c3.28.25,4.16-1.39,3.83-4.25,18.14,8.29,36.22,16.71,54.43,24.81,11.56,5.14,22.61,11.33,34.29,16.22C720,479,722.93,479.2,724.9,481.32Z" transform="translate(-449.58 -97.82)"/><path class="cls-13" d="M1179.5,373.46c.44,2.68-2.07,5.14-.64,7.88.52.32,1.1.47,1.45,0,2.85-4,6.24-4.64,10.54-2.22,2.6,1.47,6-.77,8.37,2.46,1.29-3.31-2.15-3.85-1.68-6.35,1.92-.89,4-1.16,5.51.89a5.32,5.32,0,0,0,7.31,1.26c3.76-2.58,6.68,0,10.14.18-2.73,1.78-6.92,1.6-6.7,6.61a10.8,10.8,0,0,0,8-2.74c1.4-1.34,2.88-1.28,4.48-1.36-4.2,7-9.85,12.94-14.66,19.5-5,6.86-10.39,13.47-15.67,20.15a32.86,32.86,0,0,1-3.08,3.05c-.94-.24-2-1.59-2.76-.57-1.11,1.44.5,2,1.47,2.6a4.24,4.24,0,0,1-2,2.26c-2.37-.08-2.36,1.57-2.32,3.22-1.36,1.91-2.27,4.16-4.34,5.5-2.61-1.75-3.08-5.23-5.78-7-1.3-.85-.64-2.27.23-3.33s1.37-2.16.75-3.48c-.81-1.7-1.63-3.59-3.89-1.57-1.1,1-2.31,1.63-3.05,0-1.45-3.14-4.84-3.56-7.12-5.49-.62-.53-1.6-1.09-2.43-.24a2,2,0,0,0-.22,2.52c1,1.37,2.12,2.41.41,4.13-1.55,1.57-3.16.93-4.46.2-5.84-3.23-9.53-.24-12.77,4.17-1,1.34-1.77.89-2.54,0s-.57-2.05-.63-3.13a4.16,4.16,0,0,1,2-2.2c2.46.09,2.42-1.59,2.34-3.3,2-4.54,5.63-7.91,8.52-11.8,7.43-10,15.23-19.77,22.92-29.6A19,19,0,0,1,1179.5,373.46Zm1.41,37.7c-2.27,1.5-3.65,3.93-3,5.28a1.12,1.12,0,0,0,.9.46c2.75-.32,1.26-3,2.32-4.29A1.08,1.08,0,0,0,1180.91,411.16Zm24.19-26.27c.72.1,1.18.3,1.37.15,1-.79,3.15,0,3.09-2.17a1.26,1.26,0,0,0-.59-.84c-1.89-1.2-2.35.87-3.41,1.56C1205.34,383.73,1205.33,384.2,1205.1,384.89Zm-54.36,32.78c.19-.89-.22-1.2-.8-1.19a1.64,1.64,0,0,0-1.54,1.18.85.85,0,0,0,.55,1.21C1150,419.08,1150.47,418.31,1150.74,417.67Z" transform="translate(-449.58 -97.82)"/><path class="cls-9" d="M1145.67,417c.08,1.71.12,3.39-2.34,3.3A4.44,4.44,0,0,1,1145.67,417Z" transform="translate(-449.58 -97.82)"/><path class="cls-5" d="M874.08,593.92c1.06-4.45,1.11-4.57,4.72-3.06a2.75,2.75,0,0,0,3-.4,42.34,42.34,0,0,0,4.22-3.18c2.67-2.37,4.78-2.35,6.46.48,1,1.72,1.85,3.07,4.17,2.09,1.17-.49,1.89.85,2.87,1.15,1.86.58,3.84,1.4,5.71,1.26,4.6-.33,6.28-3.36,5-8.29l0,0c1.56-.62,8-.62,12,0l0,0c.09,1.82-.28,3.16-2.53,3.34-1.84.16-3.4,1.35-2.47,3.24s2.74,1,4.23.17c.93-.52,1.92-1,2.9-1.4,2.83-1.21,5.54-1.85,7.61,1.4.51.8,1.56.82,2.48.82q-.06,9.87-.11,19.73c-.2.19-.41.37-.62.55l.75.35a4.89,4.89,0,0,1,.9,2.51,61,61,0,0,0,18.53,32.89c14.94,13.68,32.94,19.09,52.74,15.69,29.66-5.08,50.54-29.46,51.87-59.93.28-6.6-1.71-12.88-2.45-19.33,4-3.91,4-4,9-1a5.27,5.27,0,0,0,3,1c.61,0,1.73.12,1.27-1-1.1-2.66,1.87-3.67,1.55-6.57a14.31,14.31,0,0,1,1.68,2,11.89,11.89,0,0,1,.94,3c.49,2.6,2.66,3.12,4.5,1.25.45-.46.35-1.46,1.83-1.33.47,1.46,1.09,3.1,1.54,4.78.25.92.62,2.19,1.53,1.75,2.91-1.37,3.57.86,5,2.41,1.76,1.91,3.88,1.12,4.28-1.44a34.62,34.62,0,0,0,.12-4.89l0,0c1.47.18,3.59-.34,2.6,2.47-.46,1.32-.73,2.64.64,3.64,1.72-1,.6-4,3.23-3.9,2.42,15.81,1.84,31.42-3,46.77-5.7,18.12-15,34.13-29.2,46.81-16.36,14.55-35.26,23.81-57.31,26.53-26.59,3.29-50.86-2.54-72.76-17.7-23.83-16.5-38-39.47-43.36-67.83-.83-4.39-1.83-8.93-1.33-13.49.38-3.49-1.27-5.14-4.27-6.55-4.08-1.92-8.42-3.33-12.2-5.88l-1.19-1Z" transform="translate(-449.58 -97.82)"/><path class="cls-10" d="M1092.31,584a34.62,34.62,0,0,1-.12,4.89c-.4,2.56-2.52,3.35-4.28,1.44-1.45-1.55-2.11-3.78-5-2.41-.91.44-1.28-.83-1.53-1.75-.45-1.68-1.07-3.32-1.54-4.78-1.48-.13-1.38.87-1.83,1.33-1.84,1.87-4,1.35-4.5-1.25a11.89,11.89,0,0,0-.94-3,14.31,14.31,0,0,0-1.68-2c.32,2.9-2.65,3.91-1.55,6.57.46,1.1-.66,1-1.27,1a5.27,5.27,0,0,1-3-1c-5-3-5.07-2.92-9,1a18.62,18.62,0,0,1-1.36-2.31c-4.57-10.79-10.58-20.43-20-27.82-3.88-3-8.29-5.1-12.17-8,.44-2.75,2.47-2.75,4-1.63,2.61,1.93,4.78,1.24,7.55.37a43,43,0,0,1,16-1.92c4.73.31,8.72,2.57,13.26,4.08,1.22-3.41,1.68-6.83,3.51-10,1,2.54.21,4.79-.33,7,1.8,1.55,4.06.65,5.8,1.7a1.59,1.59,0,0,0,2.32-.7c1.48-3.33,3-2.28,4.7-.18a1.21,1.21,0,0,0,1.85.35c2.65-2,6.12-1.65,9-3.34,3.77-2.21,5.14-1.6,8.8,2.16-1.39,3.63-4.4,6.11-6.64,9.13-2,2.63-2.24,4.82-.8,7.92a76.37,76.37,0,0,1,7.29,25.39c-2.63-.07-1.51,2.87-3.23,3.9-1.37-1-1.1-2.32-.64-3.64,1-2.81-1.13-2.29-2.6-2.47,2.25-1.9,2.86-4.29,2.13-7.23-.9,1.64-1.88,3.1-3.67,3.6-2.06.57-4.2,1.76-3.17,3.88C1088.51,586.17,1090.71,584.58,1092.31,584Zm-10.23-7.49c-.38,1.75.7,2.11,1.18,2.8s.13,2.47,2.25,1.69C1085.5,578.8,1085.28,576.87,1082.08,576.47Zm-15.54-1c-.57.14-.92.48-.7,1.08s.5,1.42,1.29,1.48c1,.06,1-.77.93-1.47S1067.34,575.41,1066.54,575.45Z" transform="translate(-449.58 -97.82)"/><path class="cls-5" d="M1244.89,726.68a13.87,13.87,0,0,1-.45,3.19c-.81,2.12-.77,3.84,1.36,5.16a1.42,1.42,0,0,1,.68,1.86,1.83,1.83,0,0,1-2.41.55,8.19,8.19,0,0,1-1.7-1.27c-2.31-1.85-3.63-5.58-8-3.11-1.41.81-2.42-1.63-2.66-3.33,2.34-1.66,5-1.91,7.78-1.88.18.74.06,1.88,1.25,1.65s.76-1.24.76-2C1242.51,726.67,1243.72,726.75,1244.89,726.68Z" transform="translate(-449.58 -97.82)"/><path class="cls-9" d="M1191.53,424.78c-1-.62-2.58-1.16-1.47-2.6.78-1,1.82.33,2.76.57A2.61,2.61,0,0,1,1191.53,424.78Z" transform="translate(-449.58 -97.82)"/><path class="cls-9" d="M1187.18,430.26c0-1.65,0-3.3,2.32-3.22A4.06,4.06,0,0,1,1187.18,430.26Z" transform="translate(-449.58 -97.82)"/><path class="cls-12" d="M1241.51,727.47c0,.79.31,1.83-.76,2s-1.07-.91-1.25-1.65Z" transform="translate(-449.58 -97.82)"/><path class="cls-10" d="M874.14,593.87l1.19,1A1.48,1.48,0,0,1,874.14,593.87Z" transform="translate(-449.58 -97.82)"/><path class="cls-5" d="M1281,755.11c.13-1-.42-2.36,1-2.62,1.19-.23,1.06,1.09,1.34,1.85A2.75,2.75,0,0,1,1281,755.11Z" transform="translate(-449.58 -97.82)"/><path class="cls-5" d="M1227.85,732.23a39.24,39.24,0,0,1,5,3.37,2.82,2.82,0,0,1,.3,3.89c-.42.59-.8,1.32-1.63,1.09-1.41-.38-2.67-1-2.85-2.73C1228.47,736.29,1228.21,734.74,1227.85,732.23Z" transform="translate(-449.58 -97.82)"/><path class="cls-5" d="M1237.94,737.74a.82.82,0,0,1-1.18.6c-.52-.18-.94-.6-.77-1.18.06-.21.59-.38.91-.38A1,1,0,0,1,1237.94,737.74Z" transform="translate(-449.58 -97.82)"/><path class="cls-14" d="M1022.48,545.85c3.88,2.92,8.29,5,12.17,8,9.43,7.39,15.44,17,20,27.82A18.62,18.62,0,0,0,1056,584c.74,6.45,2.73,12.73,2.45,19.33-1.33,30.47-22.21,54.85-51.87,59.93-19.8,3.4-37.8-2-52.74-15.69a61,61,0,0,1-18.53-32.89,4.89,4.89,0,0,0-.9-2.51c0-.3-.08-.6-.13-.9q.06-9.85.11-19.73a9.73,9.73,0,0,0,1.05-5.3l.27-1.06c1.26-.93,1.51-2.38,2-3.74q9.59-25.8,34.9-36.65c1.2-.51,2.37-.9,3.06-2.07a24.71,24.71,0,0,0,4.32-.42c12.06-3.27,24-2.57,35.79,1.12a10.9,10.9,0,0,0,2.15.26l1.26,1C1020.26,545.2,1021.23,545.92,1022.48,545.85Z" transform="translate(-449.58 -97.82)"/><path class="cls-10" d="M1019.22,544.66l-1.26-1Z" transform="translate(-449.58 -97.82)"/><path class="cls-11" d="M804.25,555c-.08.91-.71,1.56-1.38,1.24-1.18-.57-3.27-.09-3.34-2,0-1.17,1.18-1.77,2.38-1.66A2.44,2.44,0,0,1,804.25,555Z" transform="translate(-449.58 -97.82)"/><path class="cls-5" d="M902.75,587l3.17,1.8c-.57,1-1.42.62-2.12.46S902.69,588.47,902.75,587Z" transform="translate(-449.58 -97.82)"/><path class="cls-5" d="M913.49,579.6c-.7-.1-1.46-.17-1.81-.86s-.39-1.51.36-1.8,1.22.36,1.32,1.12c.07.52.07,1.05.1,1.57Z" transform="translate(-449.58 -97.82)"/><path class="cls-5" d="M881,587.28a1.22,1.22,0,0,1-1.36.63.68.68,0,0,1-.35-1.18,2.07,2.07,0,0,1,1.45-.31C881.18,586.46,881.26,586.88,881,587.28Z" transform="translate(-449.58 -97.82)"/><path class="cls-5" d="M935.73,585.18l-.27,1.06c-1.13-.25-2.38.28-3.52-.63C933.17,584.73,934.49,585.23,935.73,585.18Z" transform="translate(-449.58 -97.82)"/><path class="cls-5" d="M913.46,579.63l1.46.39c-.82,1-1.06.07-1.43-.42Z" transform="translate(-449.58 -97.82)"/><path class="cls-5" d="M922.21,584c.08-.16.2-.46.24-.45.37.1.28.26-.26.43Z" transform="translate(-449.58 -97.82)"/><path class="cls-5" d="M910.22,584c-.15-.08-.45-.19-.44-.23.08-.37.24-.27.41.26Z" transform="translate(-449.58 -97.82)"/><path class="cls-13" d="M1194.73,373.45c-.06,1.1-.27,2.1-1.71,2a1,1,0,0,1-1-1.38c.28-.93.46-2.17,1.77-2.2C1194.64,371.88,1194.62,372.77,1194.73,373.45Z" transform="translate(-449.58 -97.82)"/><path class="cls-9" d="M1180.9,411.16a1.07,1.07,0,0,1,.28,1.45c-1.06,1.3.43,4-2.32,4.29a1.12,1.12,0,0,1-.9-.46C1177.26,415.09,1178.64,412.66,1180.9,411.16Z" transform="translate(-449.58 -97.82)"/><path class="cls-7" d="M1205.1,384.89c.23-.69.24-1.16.46-1.3,1.06-.69,1.52-2.76,3.41-1.56a1.26,1.26,0,0,1,.59.84c.06,2.2-2.1,1.38-3.09,2.17C1206.28,385.19,1205.82,385,1205.1,384.89Z" transform="translate(-449.58 -97.82)"/><path class="cls-9" d="M1150.74,417.67c-.27.64-.73,1.41-1.79,1.2a.85.85,0,0,1-.55-1.21,1.64,1.64,0,0,1,1.54-1.18C1150.52,416.47,1150.93,416.78,1150.74,417.67Z" transform="translate(-449.58 -97.82)"/><path class="cls-10" d="M934.3,611.27c.05.3.09.6.13.9l-.75-.35C933.89,611.64,934.1,611.46,934.3,611.27Z" transform="translate(-449.58 -97.82)"/><path class="cls-5" d="M1092.31,584c-1.6.62-3.8,2.21-4.74.28-1-2.12,1.11-3.31,3.17-3.88,1.79-.5,2.77-2,3.67-3.6.73,2.94.12,5.33-2.13,7.23Z" transform="translate(-449.58 -97.82)"/><path class="cls-5" d="M1082.08,576.47c3.2.4,3.42,2.33,3.43,4.49-2.12.78-1.75-1-2.25-1.69S1081.7,578.22,1082.08,576.47Z" transform="translate(-449.58 -97.82)"/><path class="cls-5" d="M1066.54,575.45c.8,0,1.4.27,1.52,1.09s.07,1.53-.93,1.47c-.79-.06-1.06-.83-1.29-1.48S1066,575.59,1066.54,575.45Z" transform="translate(-449.58 -97.82)"/></svg>